<svg width="485" height="521" viewBox="0 0 485 521" fill="none" xmlns="http://www.w3.org/2000/svg">
<path fill-rule="evenodd" clip-rule="evenodd" d="M233.524 266C269.344 266 298.381 295.013 298.381 330.803C298.381 332.339 298.338 333.79 298.24 335.284C320.902 338.708 339.221 355.405 345.059 377.161C351.292 377.739 357.004 380.078 361.7 383.671C369.075 375.696 379.666 370.679 391.414 370.679C413.822 370.679 432 388.842 432 411.232C432 417.221 430.674 422.913 428.362 428H77.4961C75.8884 422.73 75 417.108 75 411.26C75 379.5 100.793 353.756 132.58 353.756C134.963 353.756 137.318 353.897 139.631 354.179C144.553 342.399 155.524 333.748 168.639 332.141C168.639 331.676 168.639 331.254 168.639 330.789C168.668 295.027 197.704 266 233.524 266Z" fill="#51613E"/>
<path fill-rule="evenodd" clip-rule="evenodd" d="M104.152 224.977C106.971 224.977 109.706 225.46 112.244 226.371C113.386 225.157 115.021 224.384 116.84 224.384C117.7 224.384 118.518 224.563 119.265 224.867C119.66 219.593 124.143 215.452 129.599 215.452C131.982 215.452 134.153 216.253 135.901 217.55C137.043 216.046 138.862 215.079 140.892 215.079C141.244 215.079 141.569 215.121 141.921 215.148C141.202 213.575 140.821 211.835 140.821 209.986C140.821 202.766 146.841 196.871 154.257 196.871C155.611 196.871 156.964 197.078 158.219 197.465C159.178 195.436 161.278 194.014 163.745 194.014L163.929 194.055C163.886 193.572 163.858 193.075 163.858 192.619C163.858 179.574 174.658 169 187.98 169C201.275 169 212.06 179.574 212.06 192.619C212.06 192.799 212.06 192.965 212.06 193.144C213.202 192.868 214.415 192.73 215.698 192.73C218.193 192.73 220.505 193.324 222.578 194.4C226.102 189.693 231.77 186.656 238.142 186.656C248.829 186.656 257.457 195.104 257.457 205.527C257.457 207.584 257.133 209.571 256.499 211.421C256.71 211.394 256.893 211.394 257.105 211.394C262.335 211.394 266.579 215.576 266.579 220.712C266.579 221.305 266.551 221.899 266.438 222.492C266.48 222.492 266.551 222.492 266.621 222.492C269.582 222.492 271.993 224.798 272.105 227.655C272.923 227.517 273.783 227.407 274.629 227.407C278.055 227.407 281.255 228.594 283.567 230.72C289.728 236.435 283.003 237.94 276.518 237.94H268.045H261.419H125.102H114.486H96.9897C90.2225 237.94 80.5651 239.016 87.2618 232.073C91.5054 227.697 97.4972 224.977 104.152 224.977Z" fill="#F0F4F0"/>
<path fill-rule="evenodd" clip-rule="evenodd" d="M286.722 50.6976C286.722 102.069 286.722 81.399 286.722 101.392C286.722 121.384 272.034 134.76 263.696 143.423C255.357 152.086 250.363 164.417 250.363 203.147C250.363 241.834 251.435 309.713 251.435 342.404C251.435 430.543 419.39 430.543 419.39 342.404C419.39 309.713 420.49 241.82 420.49 203.147C420.49 164.431 415.467 152.086 407.115 143.423C398.776 134.76 384.117 121.384 384.117 101.392C384.117 81.399 384.117 102.069 384.117 50.6976C384.117 -16.8992 286.722 -16.8992 286.722 50.6976Z" fill="#698566"/>
<path d="M331.885 54.7893C331.885 53.0398 333.31 51.6147 335.059 51.6147C336.767 51.6147 338.192 53.0398 338.192 54.7893V126.845L353.02 118.252C353.909 117.758 355.094 118.069 355.588 118.972C356.124 119.861 355.8 121.046 354.911 121.54L338.192 131.204V234.271L382.113 208.889C383.045 208.353 384.187 208.677 384.709 209.566C385.203 210.497 384.893 211.626 383.99 212.162L338.178 238.617V337.451L382.099 312.069C383.03 311.575 384.173 311.857 384.695 312.774C385.189 313.663 384.879 314.806 383.976 315.342L338.163 341.797V455.418C338.163 457.125 336.738 458.55 335.031 458.55C333.282 458.55 331.857 457.125 331.857 455.418V368.068L294.242 346.354C293.311 345.86 293.028 344.675 293.522 343.786C294.058 342.897 295.201 342.573 296.09 343.109L331.857 363.751V281.114L294.242 259.4C293.311 258.864 293.028 257.721 293.522 256.832C294.058 255.901 295.201 255.618 296.09 256.126L331.857 276.768V194.159L294.242 172.445C293.311 171.909 293.028 170.766 293.522 169.877C294.058 168.946 295.201 168.664 296.09 169.172L331.857 189.814V107.205L307.363 93.0532C306.432 92.5171 306.15 91.3742 306.644 90.4854C307.18 89.5542 308.323 89.272 309.212 89.7799L331.857 102.859V54.7893H331.885Z" fill="#334531"/>
<path fill-rule="evenodd" clip-rule="evenodd" d="M297.854 293C258.708 293 226.968 324.89 226.968 364.208C226.968 365.85 227.039 367.463 227.151 369.104C202.382 372.853 182.358 391.203 175.979 415.114C169.178 415.723 162.954 418.298 157.828 422.259C149.717 413.501 138.157 407.998 125.342 407.998C100.855 407.998 81 427.947 81 452.551C81 459.13 82.4222 465.383 84.985 471H468.296C470.071 465.171 471 458.988 471 452.621C471 417.689 442.851 389.407 408.126 389.407C405.493 389.407 402.93 389.548 400.41 389.874C395.031 376.928 383.047 367.42 368.698 365.637C368.698 365.171 368.698 364.675 368.698 364.208C368.698 324.89 337.001 293 297.854 293Z" fill="#8C8D59"/>
<path d="M63.4995 112C66.8054 91.3951 93.2291 78.6475 105.25 78.6475C117.299 78.6475 129.057 83.8013 136.499 95.5C136.499 95.5 142.105 104.415 148.999 127.5C155.894 150.585 165.073 154.018 165.073 187.062V423.869C165.073 439.375 152.375 452.073 136.869 452.073H73.6598C58.1539 452.073 45.4557 439.375 45.4557 423.869V294.065C45.4557 231.181 22.6793 222.096 45.4562 187.062C56.3091 170.368 76.5034 169.584 83.3951 153C91.2625 134.068 60.6802 129.572 63.4995 112Z" fill="#8CA36E"/>
<path d="M107.915 144.608C107.915 143.112 106.744 141.927 105.234 141.927C103.767 141.927 102.596 143.098 102.596 144.608V205.291L90.0811 198.095C89.3333 197.63 88.3739 197.912 87.9365 198.674C87.5133 199.422 87.7531 200.381 88.5009 200.847L102.582 208.974V295.759L65.5736 274.398C64.8258 273.974 63.8241 274.214 63.4008 275.004C62.9775 275.752 63.2174 276.711 64.0075 277.149L102.582 299.427V382.671L65.5736 361.31C64.8258 360.844 63.8241 361.14 63.4008 361.874C62.9775 362.622 63.2174 363.624 64.0075 364.047L102.582 386.325V482.013C102.582 483.481 103.753 484.694 105.22 484.694C106.716 484.694 107.901 483.481 107.901 482.013V408.462L139.59 390.177C140.338 389.754 140.62 388.78 140.154 388.004C139.731 387.256 138.758 387.002 138.01 387.426L107.887 404.794V335.236L139.576 316.951C140.324 316.485 140.606 315.526 140.14 314.778C139.717 313.988 138.743 313.748 137.996 314.171L107.873 331.568V261.981L139.562 243.696C140.31 243.273 140.592 242.299 140.126 241.523C139.703 240.775 138.729 240.522 137.982 240.945L107.859 258.341V188.741L139.548 170.456C140.295 169.99 140.578 169.031 140.112 168.283C139.689 167.535 138.715 167.253 137.967 167.718L107.845 185.087V144.608H107.915Z" fill="#5E5D3E"/>
<path fill-rule="evenodd" clip-rule="evenodd" d="M148.538 357C123.373 357 102.935 377.429 102.935 402.583C102.935 403.652 102.977 404.678 103.048 405.747C87.1245 408.165 74.2538 419.891 70.1324 435.203C65.7577 435.596 61.7488 437.227 58.4432 439.786C53.2527 434.176 45.7835 430.661 37.5406 430.661C21.8004 430.661 9 443.414 9 459.161C9 463.393 9.92835 467.372 11.56 471H258.256C259.395 467.274 260 463.323 260 459.203C260 436.862 241.868 418.766 219.517 418.766C217.843 418.766 216.169 418.879 214.538 419.048C211.091 410.766 203.369 404.664 194.141 403.553C194.141 403.23 194.184 402.907 194.184 402.597C194.169 377.429 173.731 357 148.538 357Z" fill="#A2AC79"/>
<path fill-rule="evenodd" clip-rule="evenodd" d="M473.353 468H17.1872H11.6465C5.25789 468 -5.61484e-06 473.283 -5.61484e-06 479.754C-5.61484e-06 486.225 5.24376 491.551 11.6465 491.551H123.123C126.699 491.551 129.582 494.486 129.582 498.108C129.582 501.687 126.685 504.65 123.123 504.65H89.8651C85.4411 504.65 81.7944 508.301 81.7944 512.825C81.7944 517.306 85.4411 521 89.8651 521H447.219C451.643 521 455.29 517.306 455.29 512.825C455.29 508.301 451.643 504.65 447.219 504.65H435.898C432.364 504.65 429.467 501.687 429.467 498.108C429.467 494.486 432.364 491.551 435.898 491.551H473.353C479.742 491.551 485 486.239 485 479.754C485 473.283 479.756 468 473.353 468ZM467.318 521C471.573 521 475.064 517.449 475.064 513.154V512.51C475.064 508.172 471.558 504.665 467.318 504.665C463.035 504.665 459.573 508.172 459.573 512.51V513.154C459.573 517.449 463.035 521 467.318 521Z" fill="#2E1D1B"/>
<path fill-rule="evenodd" clip-rule="evenodd" d="M280.47 144.057L279.347 144.362C279.347 144.362 269.863 174.23 272.99 182.914C276.117 191.634 324.405 192.159 329.473 188.488C334.502 184.853 367.37 170.303 343.309 135.385L286.061 136.8L280.47 144.057Z" fill="#473634"/>
<path fill-rule="evenodd" clip-rule="evenodd" d="M285.885 158.166L276.487 154.659C268.343 163.207 263.728 176.566 252.643 175.433C237.85 173.899 224.758 153.429 195.263 162.258L238.196 189.948C271.092 200.469 287.56 165.972 289.055 156.035C289.209 154.842 286.46 159.128 285.885 158.166Z" fill="#F5ECDB"/>
<path fill-rule="evenodd" clip-rule="evenodd" d="M200.402 161.07L234.373 183.478C260.864 192.142 276.692 170.967 282.637 157.087L276.283 154.659C268.139 163.398 263.523 177.054 252.438 175.897C238.566 174.403 226.203 155.929 200.402 161.07Z" fill="white"/>
<path fill-rule="evenodd" clip-rule="evenodd" d="M160.823 355.011L160.569 356.538C160.569 356.538 162.169 359.479 168.303 360.88C174.462 362.256 188.939 361.196 188.837 360.047C188.735 358.911 169.738 350.833 160.823 355.011Z" fill="#88A9B8"/>
<path fill-rule="evenodd" clip-rule="evenodd" d="M168.162 297.285C167.646 301.015 167.221 305.025 166.885 309.312C165.092 333.282 159.969 379.709 160.627 387.388C161.285 395.067 169.362 425.19 174.91 439.264C180.459 453.314 182.833 456.924 184.858 474.923C186.884 492.921 197.709 493.903 194.742 474.499C191.774 455.059 189.555 409.129 180.368 392.414C180.368 392.414 179.517 390.634 179.71 388.102C179.878 385.559 201.683 317.488 202.496 306.599C203.309 295.698 202.819 300.543 202.883 297.297H168.162V297.285Z" fill="#FCB187"/>
<path fill-rule="evenodd" clip-rule="evenodd" d="M162.379 354.052C162.182 356.032 162.012 357.989 161.854 359.885C163.074 359.365 164.477 358.967 165.827 358.882C169.84 358.701 177.72 366.236 178.913 369.376C180.107 372.491 172.921 389.3 172.515 391.076C172.121 392.814 174.927 392.537 175.924 394.094C176.92 395.652 182.087 411.918 185.496 433.062C188.407 451.187 190.439 462.14 183.673 466.873C184.04 469.131 184.368 471.667 184.696 474.565C184.827 475.725 184.998 476.824 185.194 477.826C187.908 479.782 191.291 481.799 195.002 483.598C195.396 481.279 195.369 478.14 194.74 474.143C191.724 454.762 189.469 408.971 180.133 392.307C180.133 392.307 179.268 390.532 179.464 388.008C179.569 386.451 188.013 360.15 194.674 337.605C183.175 332.292 173.433 328.971 172.908 331.628C172.108 335.661 171.912 352.772 171.912 352.772L162.379 354.052Z" fill="#ED9376"/>
<path fill-rule="evenodd" clip-rule="evenodd" d="M235.006 297.285C235.437 307.807 234.418 322.675 229.429 343.113C225.171 360.487 220.613 378.516 219.268 397.295C217.413 423.459 215.637 444.26 213.129 467.786C212.567 472.992 212.933 478.404 212.175 483.937C210.817 493.999 202.406 485.318 200.891 484.058C201.217 481.431 202.21 475.583 202.275 467.725C202.445 447.893 200.982 416.013 199.467 395.89C197.952 375.634 193.459 326.658 191.408 297.285H235.006Z" fill="#FCB187"/>
<path fill-rule="evenodd" clip-rule="evenodd" d="M233.81 315.248C233.024 323.022 231.528 332.122 228.988 342.705C224.785 360.163 220.285 378.277 218.957 397.145C217.126 423.434 215.373 444.334 212.897 467.972C212.536 471.378 212.575 474.894 212.407 478.458C208.242 476.207 204.722 474.152 202.015 472.497C202.118 471.049 202.144 469.553 202.182 467.923V466.268C206.257 464.091 210.615 460.612 210.886 457.351C211.272 452.376 215.514 403.374 214.638 400.6C213.722 397.839 212.059 398.848 212.059 397.741C212.059 396.598 217.668 375.418 215.708 373.544C213.722 371.695 202.247 367.462 200.003 367.924C199.191 368.07 198.211 368.812 197.334 369.676L196.548 360.674C199.9 351.513 205.96 333.436 205.96 322.183C205.947 313.618 217.745 312.669 233.81 315.248Z" fill="#ED9376"/>
<path fill-rule="evenodd" clip-rule="evenodd" d="M229.55 253.339L230.197 254.401C230.197 254.401 241.005 279.849 234.041 320.665C234.041 320.665 226.125 357.786 224.781 368.072C224.781 368.072 224.717 368.953 223.525 369.231C222.307 369.508 208.494 363.557 195.771 363.195C183.01 362.833 167.281 349.891 160.989 356.145C160.989 356.145 160.634 356.048 160.57 355.444C160.507 354.986 163.653 313.832 166.114 289.495C167.166 279.089 168.968 258.892 178.101 252.313C178.101 252.301 194.743 261.91 229.55 253.339Z" fill="#273A88"/>
<path fill-rule="evenodd" clip-rule="evenodd" d="M229.505 253.363L230.156 254.425C230.156 254.425 241.037 279.868 234.026 320.676C234.026 320.676 226.056 357.79 224.702 368.074C224.702 368.074 224.638 368.955 223.438 369.232C222.569 369.413 215.111 366.42 206.235 364.561C238.023 331.925 222.429 275.994 218.534 278.854C214.076 282.089 183.233 325.576 177.613 308.34C176.834 305.939 171.866 288.582 169.835 287.484C168.992 287.025 167.345 287.882 165.71 289.005C166.77 278.48 168.673 258.806 177.715 252.313C177.703 252.325 194.459 261.932 229.505 253.363ZM195.481 363.185C187.217 362.968 177.728 357.513 170.308 355.316C215.047 300.085 169.797 349.897 195.481 363.185Z" fill="#0E1B51"/>
<path d="M177.55 197.64C177.51 196.603 176.565 195.74 175.431 195.778C174.311 195.815 173.38 196.665 173.42 197.74C173.42 197.803 173.893 218.367 182.8 226.105C183.65 226.83 184.946 226.768 185.729 226.005C186.484 225.243 186.444 224.017 185.621 223.317C177.995 216.679 177.55 197.703 177.55 197.64Z" fill="white"/>
<path fill-rule="evenodd" clip-rule="evenodd" d="M238.932 90.5963C233.078 76.5171 219.182 75.8415 215.136 79.0989C215.136 79.0989 196.035 70.9916 185.969 82.2719C172.175 97.7264 171.335 133.667 181.884 156.782C183.335 158.676 186.033 160.257 187.127 159.678C188.476 158.942 188.934 157.06 188.934 157.06C189.99 156.637 191.568 156.203 193.566 155.805C202.283 153.669 221.867 150.014 240.612 154.188C251.416 140.073 244.468 107.113 244.379 106.63C242.788 100.815 240.917 95.3497 238.932 90.5963Z" fill="#473634"/>
<path fill-rule="evenodd" clip-rule="evenodd" d="M174.912 113.544C174.044 129.535 175.845 145.344 181.236 155.576C182.271 157.904 185.886 160.389 187.24 159.674C188.595 158.934 189.055 157.043 189.055 157.043C190.115 156.619 191.699 156.182 193.705 155.782C200.195 154.194 212.587 151.77 226.243 152.327L228.671 118.382L225.732 95.5532C225.732 95.5532 200.578 124.625 174.912 113.544Z" fill="#362523"/>
<path fill-rule="evenodd" clip-rule="evenodd" d="M209.278 159.818C209.278 159.818 196.319 159.082 189.27 166.77C182.222 174.457 172.294 194.214 172.141 196.628C171.949 199.042 175.697 203.097 179.804 203.483C183.936 203.857 211.415 166.154 209.278 159.818Z" fill="white"/>
<path fill-rule="evenodd" clip-rule="evenodd" d="M218.855 252.697C218.855 252.697 217.465 253.028 215.514 253.028C213.562 252.995 214.629 256.358 217.858 256.159C221.045 255.993 223.531 255.595 223.531 254.312C223.502 253.04 222.829 251.613 218.855 252.697Z" fill="#FCB187"/>
<path fill-rule="evenodd" clip-rule="evenodd" d="M220.987 256.816C221.485 256.643 221.918 256.418 222.246 256.124C221.983 255.155 222.115 253.893 221.721 253.633C221.354 253.409 220.856 254.291 220.004 254.983C219.4 255.467 218.64 255.865 217.657 255.726C216.791 255.588 215.769 255.121 214.536 253.979C214.575 255.467 215.69 257.646 217.657 257.439C217.958 257.439 218.22 257.387 218.522 257.352C219.427 257.214 220.292 257.075 220.987 256.816Z" fill="#ED9376"/>
<path fill-rule="evenodd" clip-rule="evenodd" d="M171.53 244.603C171.53 244.603 170.345 249.214 171.1 250.713C171.829 252.212 179.221 257.654 200.604 258.611C222.012 259.569 229.912 254.795 230.797 253.396C231.682 251.96 230.966 247.249 230.966 247.249L200.942 252.275L171.53 244.603Z" fill="#A76744"/>
<path fill-rule="evenodd" clip-rule="evenodd" d="M174.117 247.173C174.117 247.173 173.071 252.211 173.54 252.947C173.983 253.683 175.03 253.594 175.03 253.594C175.03 253.594 175.405 247.947 175.915 247.63C176.425 247.3 174.117 247.173 174.117 247.173Z" fill="#653029"/>
<path fill-rule="evenodd" clip-rule="evenodd" d="M180.646 248.458C180.646 248.458 179.525 254.576 179.933 255.438C180.379 256.301 181.347 256.159 181.347 256.159C181.347 256.159 181.856 249.356 182.34 248.966C182.837 248.576 180.646 248.458 180.646 248.458Z" fill="#653029"/>
<path fill-rule="evenodd" clip-rule="evenodd" d="M222.245 249.806C222.245 249.806 222.293 256.062 221.599 256.895C220.871 257.693 219.676 257.4 219.676 257.4C219.676 257.4 220.532 250.487 219.999 250.041C219.482 249.56 222.245 249.806 222.245 249.806Z" fill="#653029"/>
<path fill-rule="evenodd" clip-rule="evenodd" d="M208.112 251.072C208.112 251.072 208.136 257.345 207.771 258.161C207.414 258.955 206.827 258.698 206.827 258.698C206.827 258.698 207.271 251.776 207.01 251.329C206.748 250.871 208.112 251.072 208.112 251.072Z" fill="#653029"/>
<path fill-rule="evenodd" clip-rule="evenodd" d="M186.666 251.04L196.766 252.275C197.394 252.329 197.892 252.849 197.827 253.402L197.394 257.887C197.355 258.429 196.766 258.786 196.137 258.732L186.077 257.497C185.409 257.41 184.924 256.89 184.989 256.37L185.422 251.885C185.474 251.343 186.037 250.953 186.666 251.04Z" fill="white"/>
<path fill-rule="evenodd" clip-rule="evenodd" d="M209.277 159.818C209.277 159.818 196.226 159.082 189.127 166.77C188.676 167.264 188.213 167.807 187.723 168.387C187.659 170.523 187.066 173.142 185.61 176.159C181.642 184.366 177.107 194.914 172.134 198.088C173.074 200.406 176.205 203.145 179.593 203.483C183.755 203.857 211.429 166.154 209.277 159.818Z" fill="#F5ECDB"/>
<path fill-rule="evenodd" clip-rule="evenodd" d="M208.71 159.168C208.71 159.168 203.016 158.926 198.624 160.235C194.231 161.579 187.52 171.661 182.831 180.445C178.142 189.206 176.816 196.306 176.481 206.133C176.12 215.996 174.265 232.317 172.603 240.424C170.916 248.542 172.925 251.111 192.982 252.516C213.064 253.897 225.34 254.2 229.243 251.959C233.12 249.729 237.539 226.368 240.836 213.621C244.121 200.85 265.182 162.549 232.373 158.514L221.733 159.919L208.71 159.168Z" fill="white"/>
<path fill-rule="evenodd" clip-rule="evenodd" d="M178.916 192.625C177.923 196.793 177.503 201.107 177.337 206.124C177.299 206.62 177.299 207.129 177.273 207.65C179.068 206.33 181.423 205.287 184.899 205.324C192.626 205.445 217.45 211.201 219.805 213.842C221.867 216.145 213.274 241.676 198.418 252.824C215.464 253.927 225.954 254.024 229.493 251.964C233.324 249.734 237.691 226.372 240.95 213.624C244.196 200.852 265.01 162.549 232.586 158.514L222.071 159.92L220.531 159.823L216.992 164.173C216.992 164.173 227.481 163.555 229.569 172.073C231.695 180.616 229.442 192.043 223.751 196.078C219.258 199.277 191.213 201.689 178.916 192.625Z" fill="#F5ECDB"/>
<path fill-rule="evenodd" clip-rule="evenodd" d="M222.325 139.24L222.92 144.202C222.92 144.202 224.642 154.287 224.889 155.829C225.075 156.985 226.202 158.626 228.58 159.161C229.336 159.323 225.323 167.02 216.777 167.493C208.924 167.903 207.884 160.206 208.949 160.206C209.891 160.206 209.977 159.77 210.423 159.111C211.798 156.973 210.324 148.778 208.293 146.925C206.237 145.047 222.325 139.24 222.325 139.24Z" fill="#D36657"/>
<path fill-rule="evenodd" clip-rule="evenodd" d="M192.137 123.844C188.616 124.155 185.984 126.934 186.293 130.114C186.639 133.283 189.728 135.651 193.286 135.362C196.807 135.05 199.402 132.271 199.093 129.102C198.759 125.923 195.67 123.566 192.137 123.844Z" fill="#D36657"/>
<path fill-rule="evenodd" clip-rule="evenodd" d="M213.476 89.2166C200.963 90.2887 191.645 100.889 192.787 112.743L194.674 132.359C195.816 144.238 206.93 153.084 219.457 151.999C231.97 150.927 241.249 140.327 240.145 128.485L238.259 108.869C237.116 96.9776 225.963 88.1444 213.476 89.2166Z" fill="#FCB187"/>
<path fill-rule="evenodd" clip-rule="evenodd" d="M192.915 107.711C192.683 109.291 192.619 110.896 192.786 112.537L194.674 132.256C195.817 144.197 206.941 153.089 219.477 151.999C194.713 149.525 202.535 121.551 209.767 118.33C216.998 115.146 222.457 105.36 226.516 105.74C230.536 106.107 238.821 114.435 238.949 115.268L238.294 108.642C238.063 106.193 237.421 103.878 236.406 101.747C234.3 101.624 230.01 93.8227 225.63 94.2881C220.44 94.8147 214.789 103.67 208.855 104.16C202.548 104.711 197.256 106.107 192.915 107.711Z" fill="#ED9376"/>
<path d="M210.179 116.802C210.627 117.013 210.804 117.517 210.592 117.963C210.38 118.374 209.849 118.55 209.425 118.351C209.425 118.351 206.832 117.071 204.298 118.562C203.885 118.797 203.343 118.679 203.108 118.269C202.836 117.858 202.99 117.318 203.402 117.083C206.761 115.076 210.179 116.802 210.179 116.802Z" fill="#2E1D1B"/>
<path fill-rule="evenodd" clip-rule="evenodd" d="M232.187 119.975C230.845 120.109 229.852 121.235 229.964 122.522L230.243 125.565C230.383 126.812 231.544 127.764 232.886 127.67C234.229 127.562 235.221 126.423 235.082 125.136L234.802 122.12C234.704 120.819 233.501 119.868 232.187 119.975Z" fill="#2E1D1B"/>
<path fill-rule="evenodd" clip-rule="evenodd" d="M206.483 122.543C205.144 122.633 204.154 123.593 204.265 124.665L204.544 127.178C204.684 128.25 205.841 129.043 207.194 128.954C208.533 128.842 209.523 127.915 209.383 126.843L209.104 124.308C208.979 123.247 207.78 122.454 206.483 122.543Z" fill="#2E1D1B"/>
<path fill-rule="evenodd" clip-rule="evenodd" d="M234.19 128.97C232.416 129.1 231.091 130.357 231.254 131.775C231.441 133.182 232.99 134.219 234.752 134.09C236.526 133.96 237.813 132.703 237.651 131.296C237.501 129.879 235.952 128.851 234.19 128.97Z" fill="#D36657"/>
<path fill-rule="evenodd" clip-rule="evenodd" d="M205.879 130.26C204.108 130.422 202.823 131.968 202.985 133.726C203.148 135.497 204.719 136.819 206.49 136.657C208.248 136.495 209.545 134.924 209.383 133.165C209.22 131.394 207.637 130.097 205.879 130.26Z" fill="#D36657"/>
<path fill-rule="evenodd" clip-rule="evenodd" d="M190.123 123.623L195.342 121.251C195.342 121.251 198.835 126.626 193.93 128.961L193.645 126.286C193.502 124.948 192.576 123.44 190.123 123.623Z" fill="#362523"/>
<path fill-rule="evenodd" clip-rule="evenodd" d="M225.863 95.7743C225.863 95.7743 224.949 112.533 192.014 123.821L190.123 99.8702L206.308 86.5586L223.341 87.2829C223.341 87.2829 232.926 92.2404 233.878 93.4017C234.855 94.5631 241.52 109.623 241.52 109.623L238.432 112.557C238.445 112.57 230.867 110.01 225.863 95.7743Z" fill="#473634"/>
<path fill-rule="evenodd" clip-rule="evenodd" d="M226.101 95.5532C226.101 95.5532 225.18 112.444 191.992 123.821L191.408 116.509C210.57 113.904 226.101 95.5532 226.101 95.5532Z" fill="#362523"/>
<path fill-rule="evenodd" clip-rule="evenodd" d="M214.539 136.962C214.791 139.827 217.869 142.001 221.394 141.797C224.962 141.593 227.621 139.102 227.369 136.214C227.327 135.727 226.809 135.354 226.166 135.388L215.588 135.988C214.959 136.01 214.497 136.441 214.539 136.962Z" fill="#2E1D1B"/>
<path fill-rule="evenodd" clip-rule="evenodd" d="M217.106 140.907C218.282 141.529 219.778 141.883 221.36 141.797C222.682 141.711 223.858 141.39 224.816 140.874C224.235 139.876 222.653 139.19 220.852 139.243C219.125 139.286 217.658 139.984 217.106 140.907Z" fill="#D74D4A"/>
<path fill-rule="evenodd" clip-rule="evenodd" d="M226.027 135.385L217.119 135.962C217.018 136.862 217.558 137.774 218.223 137.912C219.051 138.12 225.513 137.532 225.927 137.036C226.153 136.816 226.127 136.078 226.027 135.385Z" fill="white"/>
<path d="M227.796 114.509C227.406 114.776 227.265 115.297 227.501 115.679C227.737 116.084 228.281 116.234 228.694 116.003C228.694 115.968 231.176 114.509 233.835 115.771C234.284 115.98 234.792 115.806 235.005 115.389C235.218 114.949 235.041 114.451 234.615 114.22C231.082 112.541 227.832 114.509 227.796 114.509Z" fill="#2E1D1B"/>
<path fill-rule="evenodd" clip-rule="evenodd" d="M229.956 80.0721C224.899 77.171 219.493 77.0743 216.333 78.3314C210.721 109.216 184.973 109.155 175.194 107.959C175.027 108.72 174.872 109.482 174.704 110.255C205.406 120.143 224.254 90.7336 229.956 80.0721Z" fill="#554240"/>
<path fill-rule="evenodd" clip-rule="evenodd" d="M254.967 247.76C254.967 247.76 255.909 269.502 255.586 271.73C255.225 273.946 254.179 274.739 251.933 276.237C249.674 277.735 228.285 286.847 226.129 287.689C225.445 287.937 224.296 288.531 222.476 288.185C218.655 287.466 213.504 285.585 211.413 283.145C208.277 279.518 216.241 243.254 216.241 243.254C216.241 243.254 220.682 240.629 221.624 240.753C222.553 240.914 254.967 247.76 254.967 247.76Z" fill="#3F2E2C"/>
<path fill-rule="evenodd" clip-rule="evenodd" d="M221.101 286.95C217.421 286.06 213.287 284.426 211.46 282.427C208.123 278.855 216.597 243.15 216.597 243.15C216.597 243.15 220.346 241.114 221.871 240.749L226.101 247.868L223.01 253.573L224.713 283.329C224.713 283.317 224.713 287.535 221.101 286.95Z" fill="#362523"/>
<path fill-rule="evenodd" clip-rule="evenodd" d="M251.845 229.337C251.845 229.337 255.016 230.957 255.336 232.727C255.656 234.498 257.113 246.113 256.922 248.047C256.269 255.029 229.429 260.968 224.583 257.917C222.511 256.611 222.971 249.026 222.319 246.402C221.642 243.803 218.931 243.225 217.115 243.765C217.115 243.765 216.987 242.371 217.729 241.668C218.47 240.977 245.068 227.617 251.845 229.337Z" fill="#554240"/>
<path fill-rule="evenodd" clip-rule="evenodd" d="M175.112 202.201C172.221 209.285 163.708 230.728 162.049 239.753C160.049 250.601 174.119 287.517 175.741 291.509C176.508 293.355 176.445 296.483 178.533 299.779C180.846 303.411 184.442 304.921 186.542 304.993C190 305.113 188.352 297.969 187.711 293.882C187.611 293.151 189.836 297.154 191.043 297.933C191.873 298.485 191.043 294.961 190.917 294.565C189.937 291.569 190 289.903 188.126 288.237C185.549 285.875 183.235 287.781 181.01 283.73C178.784 279.703 177.489 246.837 173.101 241.18C173.101 241.18 172.786 240.724 173.264 239.789C173.767 238.854 175.615 235.918 175.615 235.918C176.445 228.043 177.112 219.533 177.3 213.324C177.401 209.932 177.589 206.816 177.942 203.879C176.923 203.472 175.942 202.896 175.112 202.201Z" fill="#ED9376"/>
<path fill-rule="evenodd" clip-rule="evenodd" d="M171.739 209.911C168.073 219.522 163.25 232.768 162.053 239.409C160.055 250.298 173.725 286.842 175.812 292.145C178.294 290.783 179.986 288.266 179.834 286.719C179.668 284.768 173.89 253.403 172.184 248.162C170.479 242.883 168.964 240.096 172.375 230.571C175.277 222.505 175.57 215.472 171.739 209.911Z" fill="#FCB187"/>
<path fill-rule="evenodd" clip-rule="evenodd" d="M232.668 209.144C232.668 209.144 225.264 236.935 220.247 244.686C215.229 252.437 192.735 280.131 190.194 282.727C187.653 285.347 184.17 284.526 179.411 288.16C179.024 288.461 178.688 289.379 179.669 289.898C180.61 290.417 184.918 288.92 184.621 289.222C182.829 291.021 177.682 296.731 175.631 298.711C174.161 300.148 174.625 301.391 175.735 302.285C176.057 302.562 178.043 300.426 178.469 300.631C178.727 300.751 177.979 301.609 177.85 302.309C177.721 302.985 178.172 303.492 178.405 303.528C178.92 303.649 179.475 303.673 180.03 303.709C180.352 303.733 181.526 302.128 181.887 302.092C182.313 302.055 181.719 303.13 182.738 303.311C185.64 303.866 190.168 300.329 192.709 297.021C195.637 293.242 196.462 289.488 197.958 287.628C200.538 284.453 231.275 257.242 233.454 252.907C235.634 248.61 249.294 222.46 249.229 218.766C249.126 215.096 243.85 206.428 232.668 209.144Z" fill="#FCB187"/>
<path fill-rule="evenodd" clip-rule="evenodd" d="M232.216 210.702C231.854 212.047 231.272 214.192 230.522 216.798C237.736 217.162 241.627 219.622 240.024 227.609C238.331 236.335 230.354 253.024 230.354 253.024L196.639 287.384C193.433 293.517 190.175 300.643 183.698 303.71C186.542 303.37 190.33 300.28 192.58 297.371C195.514 293.577 196.342 289.808 197.841 287.942C200.427 284.754 231.233 257.436 233.418 253.085C235.603 248.77 249.293 222.519 249.229 218.81C249.125 215.283 244.394 207.357 234.427 208.799C233.651 209.332 232.94 209.975 232.216 210.702Z" fill="#ED9376"/>
<path fill-rule="evenodd" clip-rule="evenodd" d="M241.437 161.086C241.437 161.086 241.874 161.245 242.637 161.613C245.887 163.217 254.7 168.702 256.5 181.571C258.713 197.378 251.887 224.083 250.875 224.952C249.862 225.822 249.425 224.916 249.425 224.916C249.425 224.916 241.149 212.01 228.136 213.688C228.136 213.688 227.224 213.688 227.411 212.794C227.599 211.9 235.249 187.852 234.962 178.363C234.711 168.849 234.612 160.927 241.437 161.086Z" fill="white"/>
<path fill-rule="evenodd" clip-rule="evenodd" d="M253.4 172.648C254.825 175.213 255.963 178.334 256.5 182.096C258.713 197.714 251.887 224.098 250.875 224.957C249.862 225.816 249.425 224.921 249.425 224.921C249.425 224.921 241.149 212.17 228.136 213.828C228.136 213.828 227.224 213.828 227.411 212.945C227.474 212.582 228.736 208.662 230.186 203.472C235.712 211.263 247.025 214.844 252.112 202.214C259.05 184.879 253.65 173.168 253.4 172.648Z" fill="#F5ECDB"/>
<path fill-rule="evenodd" clip-rule="evenodd" d="M211.152 165.11L213.379 163.654C213.379 163.654 213.321 166.83 213.553 166.956C213.785 167.081 214.4 165.437 215.433 164.985C216.453 164.545 218.391 168.663 218.391 168.663C218.391 168.663 217.045 171.363 215.699 171.363C214.319 171.325 209.249 169.718 209.4 168.375C209.539 167.081 211.152 165.11 211.152 165.11Z" fill="#E0CBB3"/>
<path fill-rule="evenodd" clip-rule="evenodd" d="M194.089 465.609C194.089 465.609 196.289 466.088 196.914 466.76C197.578 467.431 198.919 476.518 199.088 477.729C199.218 478.939 199.218 482.512 192.28 486.875C185.342 491.239 181.033 494.02 176.295 497.389C171.557 500.757 159.854 500.901 158.865 499.355C157.85 497.808 156.405 494.14 163.278 488.661C170.19 483.147 179.953 477.357 180.617 471.998C181.267 466.676 186.292 465.909 194.089 465.609Z" fill="#554240"/>
<path fill-rule="evenodd" clip-rule="evenodd" d="M194.131 465.609C194.131 465.609 196.313 466.095 196.932 466.775C197.591 467.455 198.92 476.663 199.088 477.89C199.217 479.117 199.217 482.737 192.337 487.158C185.456 491.58 181.183 494.398 176.484 497.811C174.793 499.038 172.237 499.84 169.564 500.302C172.766 496.123 172.405 488.786 176.703 487.438C182.151 485.713 187.56 481.449 187.47 474.938C187.405 471.84 184.862 469.873 182.151 468.67C184.281 466.313 188.464 465.828 194.131 465.609Z" fill="#3B2A28"/>
<path fill-rule="evenodd" clip-rule="evenodd" d="M219.458 166.223C219.458 166.223 188.561 183.449 187.687 185.443C186.813 187.399 190.451 190.721 191.711 191.878C192.984 193.034 217.927 170.924 220.139 169.619C222.325 168.278 219.458 166.223 219.458 166.223Z" fill="#273A88"/>
<path fill-rule="evenodd" clip-rule="evenodd" d="M219.462 166.223C219.462 166.223 213.883 169.336 207.433 173.065C207.471 174.406 207.266 176.018 206.625 177.605C205.265 180.866 194.891 188.15 188.838 188.765C189.813 190.069 191.108 191.25 191.787 191.878C193.057 193.034 217.936 170.924 220.141 169.619C222.321 168.278 219.462 166.223 219.462 166.223Z" fill="#0E1B51"/>
<path fill-rule="evenodd" clip-rule="evenodd" d="M211.055 164.938C211.055 164.938 221.788 187.208 222.222 193.167C222.222 193.167 222.568 195.695 220.625 196.212C218.656 196.73 213.841 198.644 213.147 198.307C212.454 197.946 211.526 197.452 211.179 196.417C210.832 195.418 209.396 166.335 209.396 166.335L211.055 164.938Z" fill="#273A88"/>
<path fill-rule="evenodd" clip-rule="evenodd" d="M211.089 164.938C211.089 164.938 211.674 166.07 212.539 167.864C212.221 167.924 211.928 167.984 211.737 168.105C210.898 168.502 213.086 191.038 213.569 193.627C213.951 195.637 214.956 196.576 217.106 197.395C215.338 197.973 213.633 198.49 213.251 198.31C212.539 197.949 211.585 197.455 211.228 196.42C210.872 195.42 209.396 166.335 209.396 166.335L211.089 164.938Z" fill="#0E1B51"/>
<path fill-rule="evenodd" clip-rule="evenodd" d="M193.978 486.168C193.421 486.548 192.799 486.952 192.113 487.39C185.209 491.586 180.922 494.261 176.208 497.5C171.493 500.74 159.85 500.878 158.865 499.391C158.438 498.745 157.92 497.731 158.01 496.359C158.049 496.359 168.281 498.48 178.073 492.105C184.756 487.77 190.61 486.133 193.978 486.168Z" fill="white"/>
<path fill-rule="evenodd" clip-rule="evenodd" d="M193.978 486.168C193.428 486.561 192.813 486.977 192.135 487.429C185.315 491.76 181.08 494.52 176.423 497.863C174.747 499.064 172.213 499.849 169.564 500.302C170.626 498.945 171.279 497.232 171.855 495.519C173.953 494.793 176.128 493.746 178.252 492.307C184.868 487.822 190.651 486.132 193.978 486.168Z" fill="#E8E1C5"/>
<path fill-rule="evenodd" clip-rule="evenodd" d="M213.055 475.231C213.055 475.231 214.085 474.87 214.759 476.446C215.471 477.997 216.107 486.812 215.688 488.965C215.306 491.094 212.572 493.162 209.075 493.764C205.539 494.365 203.733 498.225 198.723 499.572C193.712 500.907 179.278 500.51 176.709 497.54C174.14 494.533 178.642 487.51 187.086 484.07C195.505 480.643 196.535 476.169 198.748 475.411C200.999 474.69 205.31 474.112 213.055 475.231Z" fill="#554240"/>
<path fill-rule="evenodd" clip-rule="evenodd" d="M213.06 475.253C213.06 475.253 214.088 474.885 214.761 476.492C215.471 478.075 216.106 487.066 215.687 489.262C215.306 491.433 212.578 493.543 209.088 494.156C205.56 494.769 203.758 498.707 198.758 500.081C198.467 500.142 198.175 500.24 197.832 500.302C212.172 488.244 202.388 477.241 202.388 477.241L205.078 474.603C207.223 474.603 209.85 474.787 213.06 475.253Z" fill="#3B2A28"/>
<path fill-rule="evenodd" clip-rule="evenodd" d="M215.791 486.167C215.855 487.549 215.817 488.744 215.69 489.36C215.308 491.414 212.574 493.411 209.076 493.991C205.541 494.571 203.735 498.298 198.724 499.598C193.713 500.886 179.278 500.503 176.708 497.636C175.805 496.614 175.78 495.14 176.48 493.469C176.48 493.492 178.921 496.661 189.109 496.162C199.398 495.663 202.412 492.029 205.719 491.147C209.038 490.277 215.016 488.245 215.791 486.167Z" fill="white"/>
<path fill-rule="evenodd" clip-rule="evenodd" d="M215.791 486.167C215.854 487.599 215.816 488.838 215.689 489.475C215.308 491.605 212.58 493.674 209.09 494.275C205.561 494.876 203.759 498.738 198.759 500.085C198.467 500.145 198.175 500.241 197.832 500.302C201.424 497.318 203.505 494.431 204.597 491.761C204.977 491.581 205.371 491.46 205.752 491.34C209.051 490.426 215.017 488.321 215.791 486.167Z" fill="#E8E1C5"/>
<path fill-rule="evenodd" clip-rule="evenodd" d="M200.402 469.637C200.402 471.233 200.443 473.913 200.538 474.877C200.674 476.259 200.877 477.581 204.584 478.153C208.317 478.748 212.647 478.427 214.399 477.581C215.525 477.009 215.729 473.996 215.77 471.137C215.797 467.671 216.421 467.314 212.471 467.195L204.407 466.921C201.57 466.838 200.402 466.766 200.402 469.637Z" fill="white"/>
<path fill-rule="evenodd" clip-rule="evenodd" d="M181.212 463.669L181.724 467.613C181.724 467.613 182.082 469.751 186.088 469.431C190.094 469.111 192.757 468.368 193.627 467.293C194.216 466.614 193.947 464.284 193.653 462.466C193.294 460.238 193.627 460.328 191.362 460.622L185.052 461.365C182.121 461.698 180.764 461.403 181.212 463.669Z" fill="white"/>
<path fill-rule="evenodd" clip-rule="evenodd" d="M228.788 157.229C228.788 157.229 226.007 162.796 216.8 162.923C216.8 162.923 214.835 163.025 214.55 164.783C214.253 166.592 218.766 172.222 218.831 174.898C218.895 177.573 231.154 162.732 232.525 158.579C232.512 158.579 230.417 157.968 228.788 157.229Z" fill="white"/>
<path fill-rule="evenodd" clip-rule="evenodd" d="M210.446 158.514C210.446 158.514 209.178 160.371 212.838 162.808C212.838 162.808 213.807 163.507 212.778 164.363C211.75 165.22 208.795 168.114 208.125 169.791C207.455 171.491 206.103 165.316 207.311 159.913C207.3 159.913 209.058 158.659 210.446 158.514Z" fill="white"/>
<path fill-rule="evenodd" clip-rule="evenodd" d="M211.485 170.215C210.938 169.756 210.128 170.49 209.688 171.837C209.239 173.184 209.317 174.652 209.864 175.081C210.43 175.54 211.241 174.805 211.69 173.459C212.13 172.112 212.032 170.643 211.485 170.215Z" fill="#FCC759"/>
<path fill-rule="evenodd" clip-rule="evenodd" d="M211.506 171.433C210.934 171.202 210.151 171.562 209.694 172.243C209.237 172.924 209.318 173.67 209.857 173.863C210.428 174.094 211.212 173.734 211.669 173.053C212.126 172.372 212.044 171.665 211.506 171.433Z" fill="#FCD53B"/>
<path fill-rule="evenodd" clip-rule="evenodd" d="M339.173 202.465V226.757C339.173 230.936 336.228 234.324 332.599 234.324H287.964C284.334 234.324 281.352 230.936 281.352 226.757V202.465C281.352 200.19 282.989 198.346 284.943 198.346H335.619C337.574 198.346 339.173 200.19 339.173 202.465Z" fill="#B53532"/>
<path fill-rule="evenodd" clip-rule="evenodd" d="M337.903 299.875L339.173 306.059C339.173 306.059 337.842 314.421 337.635 315.003C337.415 315.562 337.049 316.296 335.791 316.505C334.533 316.715 324.067 317.973 323.2 317.833C322.333 317.658 321.784 316.773 321.991 315.795C322.211 314.793 321.283 303.904 321.185 301.727C321.051 299.526 337.903 299.875 337.903 299.875Z" fill="#FFACAB"/>
<path fill-rule="evenodd" clip-rule="evenodd" d="M279.059 232.513L276.663 234.966C276.663 234.966 265.236 260.809 259.74 270.597C254.231 280.385 249.991 301.248 262.623 304.199C262.623 304.199 286.349 314.327 315.071 308.122C315.071 308.122 325.038 303.216 333.647 305.511C342.256 307.782 347.304 302.997 346.856 296.148C346.407 289.274 338.567 256.74 327.05 239.933C327.037 239.933 304.054 228.797 279.059 232.513Z" fill="#E37371"/>
<path fill-rule="evenodd" clip-rule="evenodd" d="M262.078 303.942C262.078 303.942 266.795 300.369 268.043 299.878C269.249 299.387 272.403 306.791 273.623 309.651C273.623 309.651 273.801 310.425 273.075 310.732C272.348 311.039 268.262 312.561 268.056 312.66C267.851 312.746 266.699 312.819 266.15 311.726C265.588 310.646 262.078 303.942 262.078 303.942Z" fill="#FFACAB"/>
<path fill-rule="evenodd" clip-rule="evenodd" d="M279.313 361.204C283.522 376.072 336.011 420.192 336.957 422.568C337.93 424.943 341.704 420.108 341.742 417.636C341.78 415.2 339.056 412.306 339.056 412.306C339.056 412.306 318.651 391.928 300.101 366.293L298.976 288.072L301.176 288.591C301.176 288.591 300.204 286.275 298.912 282.465L298.848 279.113L297.811 279.209C294.293 268.032 289.598 248.98 292.835 233.594C284.75 232.834 277.637 232.894 277.484 233.533C266.546 275.761 267.364 318.7 279.313 361.204Z" fill="#ED9376"/>
<path fill-rule="evenodd" clip-rule="evenodd" d="M274.446 247.173C268.167 277.623 268.368 308.313 274.246 339.003C280.965 359.403 285.254 338.606 287.551 319.218C289.809 299.818 289.809 271.477 285.654 257.319C283.423 249.643 278.494 247.51 274.446 247.173Z" fill="#FCB187"/>
<path fill-rule="evenodd" clip-rule="evenodd" d="M292.723 233.039C294.793 233.258 296.951 233.5 299.046 233.84C304.271 233.282 309.214 233.476 309.214 233.476L309.891 236.353C312.114 237.118 313.864 238.077 314.898 239.145C315.741 238.805 316.546 238.805 317.312 239.145C317.312 239.145 317.146 240.735 319.024 243.745C328.962 259.878 330.035 273.012 328.093 288.003C324.517 316.129 313.825 348.309 305.625 374.869C305.625 374.869 303.811 379.069 303.849 383.888C303.887 388.731 303.3 409.962 298.484 431.314C293.681 452.666 287.678 474.225 285.481 484.992L286.477 487.298C286.477 487.298 280.601 488.985 280.116 488.706C279.669 488.463 277.497 484.348 277.497 484.348C277.497 484.348 283.82 409.622 286.081 377.843C287.793 353.577 288.636 330.295 294.448 281.618C294.46 281.631 287.844 256.503 292.723 233.039Z" fill="#ED9376"/>
<path fill-rule="evenodd" clip-rule="evenodd" d="M278.848 471.753C280.758 449.089 284.706 401.428 286.398 377.695C288.116 353.402 288.962 330.094 294.794 281.363C294.794 281.363 296.807 265.638 297.614 261.616C298.422 257.593 310.997 256.001 314.881 269.077C318.804 282.19 312.164 337.835 304.575 361.508C304.575 361.508 300.011 374.098 299.294 378.764C298.576 383.467 299.883 400.322 297.64 416.716C295.371 433.109 286.141 473.248 283.744 477.817C281.347 482.411 278.296 478.146 278.848 471.753Z" fill="#FCB187"/>
<path fill-rule="evenodd" clip-rule="evenodd" d="M267.276 291.384C266.471 271.823 274.274 239.627 274.274 239.627L277.276 236.894C285.117 239.044 294.286 237.38 297.671 239.129C298.22 239.409 298.667 239.931 299.063 240.636C307.006 240.417 318.526 239.955 318.526 239.955C318.526 239.955 318.692 240.077 318.947 240.32C318.947 240.32 338.729 256.041 330.926 289.962C323.085 323.883 314.592 360.174 313.724 361.401C312.855 362.628 286.611 354.707 276.318 356.517C276.318 356.529 266.446 321.356 267.276 291.384Z" fill="#273A88"/>
<path fill-rule="evenodd" clip-rule="evenodd" d="M273.643 244.694C274.314 241.535 274.757 239.627 274.757 239.627L277.734 236.894C285.51 239.044 294.604 237.38 297.96 239.129C298.505 239.409 298.948 239.931 299.341 240.636C307.219 240.417 318.643 239.955 318.643 239.955C318.643 239.955 318.808 240.077 319.061 240.32C319.061 240.32 338.68 256.041 330.941 289.961C323.165 323.882 314.742 360.171 313.881 361.399C313.526 361.921 308.637 360.815 302.355 359.467C310.132 356.49 313.21 349.152 321.113 315.961C331.131 273.876 322.139 256.551 313.108 257.632C304.053 258.738 302.647 265.371 301.583 269.211C300.531 273.074 296.593 275.322 296.593 275.322C296.593 275.322 297.099 278.274 297.226 280.485C297.327 282.72 296.073 283.061 295.44 283.279C294.832 283.462 289.006 283.182 289.006 283.182C289.006 283.182 288.271 285.916 287.499 287.604C286.764 289.293 285.447 288.674 285.447 288.674C285.447 288.674 279.722 285.855 278.569 284.895C277.455 283.948 278.152 282.781 278.152 282.781L282.027 274.18C282.027 274.18 277.797 261.593 278.949 258.155C280.064 254.68 279.722 250.853 278.721 248.606C278.253 247.549 275.922 246.018 273.643 244.694ZM287.955 356.867C284.978 356.442 282.166 356.223 279.798 356.259C288.119 341.304 290.298 290.775 290.804 296.789C291.349 303.544 287.955 356.867 287.955 356.867Z" fill="#0E1B51"/>
<path fill-rule="evenodd" clip-rule="evenodd" d="M197.832 158.514C195.793 158.721 193.966 159.561 192.934 162.059C191.902 164.557 194.414 163.601 195.918 162.669C197.422 161.737 197.832 158.514 197.832 158.514Z" fill="#ED9376"/>
<path fill-rule="evenodd" clip-rule="evenodd" d="M276.67 113.673C252.585 87.931 286.242 45.6686 319.602 77.2588C319.602 77.2588 334.414 73.007 333.921 91.9391C333.428 110.835 329.303 115.367 338.681 128.451C340.315 130.79 342.157 133.19 343.895 135.712C343.934 135.81 344.816 137.564 343.895 139.099C342.948 140.634 313.973 163.294 283.065 151.038C283.661 147.286 283.622 141.56 283.622 141.56C282.74 146.701 280.899 150.088 280.873 150.112C280.38 149.893 279.926 149.686 279.459 149.467C279.459 149.467 278.045 148.638 278.447 146.019C282.377 134.506 280.912 134.202 278.707 120.094L276.67 113.673Z" fill="#473634"/>
<path fill-rule="evenodd" clip-rule="evenodd" d="M287.964 149.52H332.599C336.228 149.52 339.173 152.331 339.173 155.752V228.091C339.173 231.537 336.228 234.324 332.599 234.324H287.964C284.334 234.324 281.352 231.549 281.352 228.091V155.752C281.352 152.331 284.334 149.52 287.964 149.52Z" fill="#B53532"/>
<path fill-rule="evenodd" clip-rule="evenodd" d="M331.464 167.852C324.216 157.346 330.17 155.334 325.125 153.997C318.3 152.202 301.896 151.563 293.97 150.804C292.549 150.961 289.053 151.624 287.632 152.202C272.265 158.166 259.383 185.815 272.906 201.068C273.354 212.489 274.916 220.067 274.557 228.525C273.968 242.801 319.926 238.813 320.144 232.055C321.245 198.08 327.392 198.803 331.464 167.852Z" fill="white"/>
<path fill-rule="evenodd" clip-rule="evenodd" d="M332.767 149.52C336.304 149.52 339.173 152.331 339.173 155.752V228.091C339.173 231.537 336.304 234.324 332.767 234.324C329.206 234.324 326.324 231.549 326.324 228.091V155.752C326.337 152.331 329.206 149.52 332.767 149.52Z" fill="#D74D4A"/>
<path fill-rule="evenodd" clip-rule="evenodd" d="M267.218 185.839C267.448 191.08 269.615 197.017 272.755 201.263C274.767 201.898 296.468 203.35 305.146 203.35C313.823 203.35 312.977 208.171 312.977 210.234C312.977 212.261 312.234 223.115 308.735 229.687C306.825 233.297 302.518 236.236 298.955 238.179C309.709 237.843 319.937 235.264 320.04 232.122C320.911 205.329 324.411 197.113 330.179 180.118C329.14 178.547 329.602 179.938 328.012 176.424C326.462 172.91 326.782 172.91 323.18 177.732C319.553 182.553 321.527 187.878 315.502 192.22C309.901 196.262 268.115 199.536 267.218 185.839Z" fill="#F5ECDB"/>
<path fill-rule="evenodd" clip-rule="evenodd" d="M312.997 128.961L312.746 134.697C312.746 134.697 312.746 146.372 312.746 148.142C312.746 149.068 314.488 149.733 314.713 151.325C315.978 160.054 291.125 162.157 294.52 150.125C294.645 149.615 295.497 149.591 296.011 149.045C297.94 146.919 297.84 137.405 295.911 134.911C293.969 132.441 312.997 128.961 312.997 128.961Z" fill="#E27F6A"/>
<path fill-rule="evenodd" clip-rule="evenodd" d="M279.002 113.553C282.92 113.344 286.249 116.056 286.479 119.582C286.709 123.109 283.726 126.17 279.847 126.38C275.968 126.589 272.6 123.877 272.37 120.351C272.14 116.789 275.11 113.763 279.002 113.553Z" fill="#E27F6A"/>
<path fill-rule="evenodd" clip-rule="evenodd" d="M326.543 110.984C330.461 110.774 333.791 113.486 334.021 117.013C334.251 120.539 331.268 123.6 327.388 123.81C323.509 124.019 320.141 121.308 319.911 117.781C319.693 114.219 322.664 111.193 326.543 110.984Z" fill="#E27F6A"/>
<path fill-rule="evenodd" clip-rule="evenodd" d="M299.201 77.604C312.605 76.862 324.201 86.5816 324.976 99.1844L326.28 120.059C327.093 132.662 316.75 143.61 303.372 144.34C289.956 145.082 278.373 135.362 277.559 122.76L276.255 101.885C275.467 89.2822 285.785 78.3339 299.201 77.604Z" fill="#FCB187"/>
<path fill-rule="evenodd" clip-rule="evenodd" d="M310.006 80.134C318.347 83.4821 324.396 90.9939 324.959 99.9179L326.282 120.81C326.976 131.828 319.106 141.58 308.055 144.38C331.938 131.706 317.941 111.557 313.842 105.068C309.744 98.5422 308.12 95.7176 301.73 99.4066C295.341 103.132 290.378 103.619 290.378 103.619L283.923 100.052C283.923 100.052 283.818 91.3713 285.978 88.9729C288.139 86.5744 296.794 84.8213 307.322 80.9497C308.186 80.621 309.076 80.341 310.006 80.134Z" fill="#ED9376"/>
<path fill-rule="evenodd" clip-rule="evenodd" d="M281.251 108.953L287.736 108.405C288.433 108.355 289.031 109.069 289.056 109.998C289.118 110.928 288.583 111.725 287.898 111.758L281.388 112.256C280.728 112.289 280.13 111.575 280.068 110.696C280.031 109.799 280.566 109.002 281.251 108.953Z" fill="#3F2E2C"/>
<path fill-rule="evenodd" clip-rule="evenodd" d="M308.248 107.451L314.723 107.119C315.421 107.086 316.018 107.562 316.043 108.181C316.081 108.801 315.57 109.298 314.885 109.354L308.373 109.686C307.675 109.719 307.115 109.243 307.053 108.624C307.015 108.037 307.551 107.506 308.248 107.451Z" fill="#3F2E2C"/>
<path fill-rule="evenodd" clip-rule="evenodd" d="M307.038 126.31C307.269 130.37 304.021 133.878 299.772 134.087C295.522 134.332 291.863 131.241 291.632 127.181C291.606 126.47 292.145 125.881 292.903 125.819L305.626 125.108C306.345 125.071 306.987 125.599 307.025 126.322H307.038V126.31Z" fill="white"/>
<path fill-rule="evenodd" clip-rule="evenodd" d="M283.101 123.826C284.886 123.732 286.39 125.071 286.484 126.856C286.601 128.606 285.239 130.157 283.488 130.239C281.703 130.356 280.187 128.994 280.07 127.244C279.988 125.47 281.327 123.955 283.101 123.826Z" fill="#E27F6A"/>
<path fill-rule="evenodd" clip-rule="evenodd" d="M313.908 121.257C315.693 121.144 317.196 122.751 317.325 124.893C317.419 127.036 316.08 128.84 314.296 128.952C312.511 129.093 310.996 127.459 310.914 125.358C310.785 123.202 312.158 121.398 313.908 121.257Z" fill="#E27F6A"/>
<path fill-rule="evenodd" clip-rule="evenodd" d="M328.894 110.933L327.077 109.687L322.908 110.078C322.908 110.078 320.809 115.906 325.796 116.112L325.542 112.858C325.401 111.293 327.683 110.676 328.894 110.933Z" fill="#473634"/>
<path fill-rule="evenodd" clip-rule="evenodd" d="M308.245 89.2725C308.245 89.2725 307.667 102.121 318.416 109.958C318.416 109.958 311.652 103.666 311.074 96.3487C316.065 106.842 321.497 109.1 322.54 110.054C323.709 110.574 324.979 110.912 326.324 110.972L326.098 90.6249L318.856 81.2544L301.292 76.2793C301.292 76.2793 286.997 79.5155 286.017 79.9744C284.998 80.4574 281.755 82.788 280.422 85.5532C279.114 88.3306 274.928 96.9283 274.928 96.9283L276.902 106.601C276.889 106.601 295.547 108.134 308.245 89.2725Z" fill="#473634"/>
<path d="M307.636 117.788C307.677 118.253 307.301 118.656 306.751 118.68C306.242 118.705 305.799 118.375 305.772 117.911C305.705 116.762 306.148 115.723 306.926 114.941C307.677 114.135 308.763 113.609 310.01 113.548C311.23 113.487 312.384 113.89 313.269 114.599C314.113 115.283 314.69 116.273 314.757 117.41C314.797 117.874 314.422 118.277 313.872 118.302C313.362 118.338 312.92 117.959 312.893 117.495C312.866 116.847 312.518 116.261 312.008 115.858C311.539 115.43 310.855 115.21 310.104 115.247C309.393 115.271 308.749 115.589 308.307 116.053C307.837 116.517 307.596 117.141 307.636 117.788Z" fill="#3F2E2C"/>
<path d="M283.223 119.296C283.249 119.644 282.887 119.946 282.337 119.965C281.828 119.992 281.385 119.708 281.358 119.36C281.291 118.526 281.734 117.738 282.512 117.133C283.263 116.556 284.376 116.162 285.597 116.116C286.857 116.071 288.011 116.373 288.856 116.877C289.701 117.408 290.278 118.151 290.345 119.003C290.371 119.351 290.009 119.653 289.5 119.672C288.963 119.699 288.52 119.415 288.48 119.067C288.453 118.581 288.105 118.141 287.635 117.811C287.126 117.509 286.455 117.353 285.704 117.372C284.993 117.399 284.349 117.628 283.907 117.976C283.451 118.343 283.182 118.81 283.223 119.296Z" fill="#3F2E2C"/>
<path fill-rule="evenodd" clip-rule="evenodd" d="M274.736 76.5077C283.733 81.0747 299.641 85.807 313.085 72.4246C314.076 73.05 315.067 73.7345 316.045 74.4779C308.769 83.5176 293.643 96.4279 268.503 92.1323C268.868 86.3852 271.111 80.8977 274.736 76.5077Z" fill="#554240"/>
<path fill-rule="evenodd" clip-rule="evenodd" d="M319.899 104.711L321.469 108.581C321.469 108.581 323.014 129.988 323.45 135.914C323.886 141.853 322.914 143.727 323.076 144.129C323.201 144.555 326.378 144.774 327.362 141.914C328.309 139.054 326.291 129.951 325.319 116.637C324.347 103.324 324.347 103.263 324.347 103.263L319.899 104.711Z" fill="#473634"/>
<path fill-rule="evenodd" clip-rule="evenodd" d="M282.349 272.872L280.298 273.437L277.71 279.63C277.71 279.63 277.054 281.201 278.044 282.139C279.07 283.054 285.402 285.676 285.402 285.676C285.402 285.676 286.643 286.016 287.239 284.818C287.847 283.642 288.658 280.161 288.658 280.161C288.658 280.161 291.449 274.567 282.349 272.872Z" fill="#D55E5B"/>
<path fill-rule="evenodd" clip-rule="evenodd" d="M288.069 244.072L285.545 242.033C285.545 242.033 282.085 249.747 278.061 256.411C274.049 263.039 273.396 272.205 279.034 275.415L286.647 279.296C286.634 279.296 299.757 267.762 288.069 244.072Z" fill="#E37371"/>
<path fill-rule="evenodd" clip-rule="evenodd" d="M290.378 239.25C290.378 239.25 317.924 228.076 320.744 226.869C323.565 225.663 325.48 229.026 326.083 231.024C326.687 233.06 324.785 234.973 324.785 234.973C324.785 234.973 327.736 238.178 327.605 239.567C327.5 240.919 325.781 242.394 325.021 242.467C324.26 242.504 289.788 243.478 289.447 243.296C289.08 243.137 288.489 240.115 290.378 239.25Z" fill="#FFACAB"/>
<path fill-rule="evenodd" clip-rule="evenodd" d="M290.376 239.256L294.257 237.686C294.847 238.429 295.752 239.219 296.447 239.219C297.536 239.256 307.476 238.015 306.689 238.392C305.889 238.757 295.923 241.251 297.378 241.227C298.873 241.191 323.658 239.134 323.592 238.672C323.566 238.21 322.635 236.762 322.097 236.64C321.533 236.482 313.914 236.701 314.347 236.579C314.806 236.457 322.595 234.06 323.002 233.355C323.435 232.612 324.497 230.86 323.867 229.169C323.566 228.402 322.477 227.441 321.35 226.675C323.867 226.151 325.559 229.169 326.084 231.043C326.687 233.075 324.785 234.985 324.785 234.985C324.785 234.985 327.736 238.185 327.605 239.572C327.5 240.923 325.782 242.395 325.021 242.468C324.261 242.505 289.799 243.478 289.458 243.296C289.078 243.137 288.487 240.12 290.376 239.256Z" fill="#E37371"/>
<path fill-rule="evenodd" clip-rule="evenodd" d="M288.603 239.207C288.603 239.207 274.798 227.23 274.084 226.759C273.371 226.299 272.322 227.023 271.905 227.748C271.501 228.473 272.308 233.006 271.797 234.26C271.528 234.835 269.9 235.824 269.792 237.113C269.685 238.39 271.326 239.494 271.73 239.966C272.174 240.426 284.62 242.876 286.423 243.279C288.226 243.682 289.895 240.898 288.603 239.207Z" fill="#FFACAB"/>
<path fill-rule="evenodd" clip-rule="evenodd" d="M288.603 239.198C288.603 239.198 286.802 237.622 284.462 235.621C284.502 236.115 284.502 236.495 284.422 236.667C284.18 237.484 282.042 237.772 281.732 237.829C281.463 237.887 282.916 239.14 282.916 239.52C282.916 239.865 280.872 240.475 280.468 240.475C280.025 240.475 273.772 238.646 273.261 238.381C272.723 238.117 272.239 236.552 272.307 236.288C272.347 236.023 276.179 237.185 277.228 237.427C278.277 237.657 273.759 234.114 273.355 233.033C272.952 231.952 272.535 227.339 273.597 226.615C272.952 226.615 272.239 227.167 271.903 227.753C271.5 228.478 272.307 233.01 271.796 234.263C271.527 234.839 269.9 235.828 269.792 237.116C269.685 238.393 271.325 239.497 271.728 239.969C272.172 240.429 284.61 242.879 286.412 243.281C288.227 243.672 289.894 240.889 288.603 239.198Z" fill="#E37371"/>
<path fill-rule="evenodd" clip-rule="evenodd" d="M287.732 270.805L285.267 272.599L285.207 280.598C285.207 280.598 285.386 281.866 286.684 281.866C287.982 281.866 294.45 281.832 294.45 281.832C294.45 281.832 295.748 281.889 295.439 279.375C295.141 276.861 294.176 272.473 294.176 272.473L292.342 270.302L287.732 270.805Z" fill="#FFACAB"/>
<path fill-rule="evenodd" clip-rule="evenodd" d="M286.509 241.404C286.509 241.404 287.032 245.535 284.99 255.096C282.934 264.694 280.655 271.633 285.618 274.156L295.374 274.033C295.374 274.033 301.227 270.433 298.713 257.78C296.16 245.127 289.717 240.749 289.717 240.749L286.509 241.404Z" fill="#FFACAB"/>
<path fill-rule="evenodd" clip-rule="evenodd" d="M286.686 241.406C286.686 241.406 286.918 243.229 286.492 247.234C287.176 246.453 288.118 245.82 289.331 245.796C292.621 245.758 298.13 257.105 296.801 265.637C296.014 270.523 293.898 273.065 291.421 274.156L295.433 274.119C295.433 274.119 301.2 270.511 298.723 257.824C296.207 245.138 289.86 240.749 289.86 240.749L286.686 241.406Z" fill="#E37371"/>
<path fill-rule="evenodd" clip-rule="evenodd" d="M284.61 239.656C284.61 239.656 285.412 237.573 286.78 237.074C288.108 236.554 290.804 237.291 291.537 237.617C292.269 237.942 293.14 242.248 292.864 242.91C292.615 243.572 289.297 244.526 288.467 244.58C287.665 244.667 284.306 244.559 283.988 243.376C283.67 242.205 284.61 239.656 284.61 239.656Z" fill="#FFACAB"/>
<path fill-rule="evenodd" clip-rule="evenodd" d="M288.994 236.894C290.044 237.036 291.122 237.364 291.537 237.561C292.27 237.889 293.14 242.229 292.864 242.896C292.615 243.563 289.298 244.525 288.469 244.58C287.667 244.668 284.309 244.558 283.991 243.366C283.963 243.257 283.922 243.148 283.922 243.038C286.05 243.869 289.796 243.006 290.169 242.426C290.625 241.737 291.288 239.277 290.694 238.195C290.431 237.692 289.699 237.255 288.994 236.894Z" fill="#E37371"/>
<path fill-rule="evenodd" clip-rule="evenodd" d="M278.721 153.179C271.969 158.201 268.639 168.848 267.586 180.145C269.613 173.809 281.261 154.481 287.776 151.841C287.316 150.822 286.776 150.723 285.907 150.846C283.683 151.165 278.826 153.118 278.721 153.179ZM267.218 188.556C267.257 198.024 268.679 207.074 270.903 212.857C271.206 213.729 271.995 215.375 273.628 214.994C273.259 211.028 272.825 206.705 272.627 201.646C269.942 198.024 267.942 193.186 267.218 188.556Z" fill="#473634"/>
<path fill-rule="evenodd" clip-rule="evenodd" d="M296.226 155.873L298.735 154.659C298.735 154.659 298.669 157.327 298.933 157.432C299.237 157.537 299.897 156.166 301.073 155.768C302.235 155.402 304.481 158.834 304.481 158.834C304.481 158.834 302.948 161.105 301.377 161.084C299.805 161.084 294.033 159.713 294.205 158.625C294.35 157.505 296.226 155.873 296.226 155.873Z" fill="#E0CBB3"/>
<path fill-rule="evenodd" clip-rule="evenodd" d="M304.252 157.229C304.252 157.229 273.391 174.48 272.491 176.439C271.617 178.398 275.255 181.737 276.515 182.883C277.787 184.042 302.722 161.899 304.933 160.593C307.144 159.274 304.252 157.229 304.252 157.229Z" fill="#273A88"/>
<path fill-rule="evenodd" clip-rule="evenodd" d="M304.25 157.229C304.25 157.229 298.711 160.346 292.236 164.043C292.274 165.386 292.107 167 291.428 168.59C290.094 171.892 279.695 179.15 273.643 179.766C274.617 181.072 275.912 182.292 276.592 182.883C277.861 184.042 302.737 161.899 304.943 160.593C307.136 159.274 304.25 157.229 304.25 157.229Z" fill="#0E1B51"/>
<path fill-rule="evenodd" clip-rule="evenodd" d="M296.05 155.944C296.05 155.944 307.793 178.238 308.309 184.208C308.309 184.208 308.69 186.736 306.529 187.218C304.368 187.735 299.108 189.649 298.319 189.312C297.558 188.975 296.566 188.458 296.158 187.459C295.778 186.459 294.201 157.34 294.201 157.34L296.05 155.944Z" fill="#273A88"/>
<path fill-rule="evenodd" clip-rule="evenodd" d="M295.923 155.944C295.923 155.944 296.467 157.076 297.328 158.894C297.012 158.93 296.758 159.014 296.531 159.11C295.733 159.532 297.872 182.08 298.353 184.632C298.733 186.643 299.759 187.582 301.911 188.436C300.113 188.978 298.455 189.496 298.037 189.315C297.328 188.978 296.404 188.461 296.024 187.461C295.67 186.462 294.201 157.377 294.201 157.377L295.923 155.944Z" fill="#0E1B51"/>
<path fill-rule="evenodd" clip-rule="evenodd" d="M313.378 149.52C313.378 149.52 311.39 154.016 302.782 154.141C302.782 154.141 300.915 154.203 300.636 155.959C300.394 157.691 304.588 163.196 304.649 165.849C304.746 168.465 314.76 156.657 316.045 152.596C316.045 152.609 314.905 150.279 313.378 149.52Z" fill="white"/>
<path fill-rule="evenodd" clip-rule="evenodd" d="M295.237 149.52C295.237 149.52 293.971 151.41 297.625 153.807C297.625 153.807 298.617 154.542 297.589 155.385C296.538 156.204 293.6 159.094 292.908 160.805C292.239 162.479 290.913 156.3 292.119 150.917C292.131 150.929 293.875 149.676 295.237 149.52Z" fill="white"/>
<path fill-rule="evenodd" clip-rule="evenodd" d="M297.325 161.186C296.506 160.844 295.293 161.391 294.635 162.395C293.963 163.399 294.08 164.494 294.928 164.848C295.746 165.167 296.959 164.619 297.617 163.604C298.289 162.6 298.187 161.528 297.325 161.186Z" fill="#FCC759"/>
<path fill-rule="evenodd" clip-rule="evenodd" d="M296.302 162.401C295.765 162.287 294.95 162.484 294.494 162.802C294.038 163.138 294.119 163.506 294.706 163.621C295.243 163.735 296.058 163.538 296.514 163.221C296.921 162.878 296.84 162.509 296.302 162.401Z" fill="#FCD53B"/>
<path fill-rule="evenodd" clip-rule="evenodd" d="M320.759 157.338L330.113 155.944C338.204 166.633 341.391 186.042 352.023 212.287C348.991 215.528 347.584 215.381 343.416 216.335C342.991 214.916 340.023 215.809 339.636 214.476C335.3 200.008 330.965 190.86 321.933 175.414C321.933 175.414 312.41 171.831 320.759 157.338Z" fill="white"/>
<path fill-rule="evenodd" clip-rule="evenodd" d="M318.968 153.125C302.953 164.254 314.686 208.973 320.96 224.217C320.96 224.217 321.71 226.498 322.926 226.595C324.168 226.692 326.29 226.438 326.393 225.654C326.458 224.893 309.201 179.015 331.464 156.263C331.464 156.263 331.36 154.404 329.692 153.789C328.385 153.306 324.957 152.594 323.224 152.292C321.283 151.93 320.624 151.966 318.968 153.125Z" fill="#473634"/>
<path fill-rule="evenodd" clip-rule="evenodd" d="M242.773 161.961C242.773 161.961 236.685 158.078 234.342 173.849C233.54 179.247 233.183 185.165 233.056 190.588L232.89 190.687C231.858 195.489 230.508 200.589 229.35 204.771C228.802 198.443 228.42 190.315 228.866 182.138C229.859 164.741 235.17 159.095 235.17 159.095C235.17 159.095 235.807 158.723 237.131 158.524C238.468 158.363 243.232 160.113 242.773 161.961Z" fill="#3B2A28"/>
<path fill-rule="evenodd" clip-rule="evenodd" d="M194.735 164.545C196.26 164.91 198.586 162.364 198.586 162.364C198.586 162.364 196.93 167.078 201.215 163.748C205.499 160.445 206.827 159.753 206.827 159.753C206.827 159.753 206.432 157.508 204.868 157.442C203.278 157.338 201.885 158.33 201.885 158.33C200.347 154.008 191.344 163.748 194.735 164.545Z" fill="#FCB187"/>
<path fill-rule="evenodd" clip-rule="evenodd" d="M363.587 177.348C366.261 174.478 366.261 173.327 366.261 173.327C366.133 170.129 365.484 167.07 366.617 164.604L366.579 164.579H366.617C367.037 163.719 367.61 162.923 368.514 162.253C369.8 161.229 371.213 159.661 372.766 158.511C373.403 158.03 374.536 158.473 373.696 160.521C373.25 161.545 372.474 162.759 372.181 163.681C378.33 162.177 379.387 159.37 383.117 156.147C383.856 155.54 385.18 156.4 384.53 157.36C383.983 158.132 383.308 159.206 382.315 160.584C382.315 160.584 385.536 157.449 386.466 158.789C387.395 160.129 385.282 162.367 385.282 162.367C385.282 162.367 387.28 161.317 387.853 161.886C388.554 162.619 386.657 165.047 384.187 167.284C385.447 167.057 385.765 167.348 385.116 168.308C384.467 169.206 379.616 171.507 376.853 172.809C375.924 173.479 374.982 174.187 374.154 174.857C371.481 177.057 370.806 184.212 370.806 184.212L363.587 177.348Z" fill="#FCB187"/>
<path fill-rule="evenodd" clip-rule="evenodd" d="M363.587 177.159C366.192 174.293 366.192 173.144 366.192 173.144C366.093 170.681 365.721 168.294 366.031 166.223C366.44 170.883 369.319 172.866 372.234 172.866C374.616 172.866 378.561 171.073 381.576 170.088C379.913 170.984 377.941 171.969 376.502 172.639C375.596 173.308 374.678 174.015 373.872 174.684C372.37 175.96 371.514 178.839 371.055 181.061C369.964 181.251 369.021 181.478 368.165 181.642L363.587 177.159Z" fill="#ED9376"/>
<path fill-rule="evenodd" clip-rule="evenodd" d="M339.173 212.641C340.52 196.49 357.606 180.683 363.39 175.299C363.898 174.826 364.381 173.619 364.839 174.009C366.797 175.737 369.53 176.672 372.581 177.027C372.581 177.027 352.089 238.257 339.173 212.641Z" fill="white"/>
<path fill-rule="evenodd" clip-rule="evenodd" d="M334.059 422.987C336.102 425.412 339.996 429.546 341.756 436.007C343.478 442.469 348.155 440.941 350.159 439.014C352.202 437.086 353.898 434.88 351.984 429.582C350.095 424.284 348.733 419.071 347.988 416.198C347.204 413.313 342.051 410.003 338.801 412.149C338.801 412.149 340.651 417.326 338.017 418.671C335.421 420.017 333.404 419.108 333.404 419.108C333.404 419.108 331.631 419.859 334.059 422.987Z" fill="#554240"/>
<path fill-rule="evenodd" clip-rule="evenodd" d="M350.172 439.014C352.215 437.086 353.911 434.88 351.996 429.582C350.107 424.284 348.745 419.071 348 416.198C347.216 413.313 342.064 410.003 338.813 412.149C338.813 412.149 340.663 417.326 338.029 418.671C335.434 420.017 333.416 419.108 333.416 419.108C333.416 419.108 331.862 419.775 333.648 422.442C336.77 421.12 341.961 419.775 346.047 422.866C352.279 427.582 352.343 436.007 350.172 439.014Z" fill="#3B2A28"/>
<path fill-rule="evenodd" clip-rule="evenodd" d="M342.502 438.032C344.584 442.081 348.374 440.699 350.16 439.014C352.203 437.086 353.899 434.88 351.985 429.582C350.096 424.284 348.734 419.071 347.989 416.198C347.693 415.156 346.948 413.955 345.907 412.949C345.946 412.986 347.822 419.532 349.029 424.102C350.263 428.636 352.344 433.473 349.608 435.716C347.372 437.547 344.815 438.492 342.502 438.032Z" fill="white"/>
<path fill-rule="evenodd" clip-rule="evenodd" d="M350.173 439.014C352.216 437.086 353.912 434.88 351.998 429.582C350.109 424.284 348.747 419.071 348.001 416.198C347.706 415.156 346.961 413.955 345.92 412.949C345.958 412.986 347.834 419.532 349.042 424.102C349.402 425.424 349.826 426.733 350.173 428.054C352.113 432.273 351.663 436.928 350.173 439.014Z" fill="#DAD6D6"/>
<path fill-rule="evenodd" clip-rule="evenodd" d="M288.125 482.075C288.125 482.075 288.973 481.772 289.552 483.069C290.13 484.366 290.657 491.713 290.323 493.507C289.988 495.301 287.727 497.022 284.772 497.519C281.816 498.029 280.326 501.253 276.137 502.357C271.948 503.472 259.883 503.145 257.737 500.647C255.604 498.15 259.343 492.295 266.397 489.433C273.452 486.56 274.287 482.851 276.163 482.22C278.039 481.602 281.649 481.129 288.125 482.075Z" fill="#4E3735"/>
<path fill-rule="evenodd" clip-rule="evenodd" d="M288.124 482.075C288.124 482.075 288.973 481.772 289.551 483.069C290.129 484.366 290.656 491.713 290.322 493.507C289.988 495.301 287.726 497.022 284.771 497.519C281.816 498.017 280.325 501.253 276.136 502.357C275.905 502.417 275.648 502.478 275.365 502.526C287.366 492.67 279.169 483.675 279.169 483.675L281.43 481.529C283.229 481.541 285.426 481.687 288.124 482.075Z" fill="#3B2A28"/>
<path fill-rule="evenodd" clip-rule="evenodd" d="M290.412 490.755C290.438 491.955 290.425 492.985 290.322 493.519C289.988 495.313 287.727 497.034 284.771 497.531C281.816 498.041 280.326 501.265 276.137 502.368C271.948 503.484 259.882 503.156 257.737 500.659C256.991 499.786 256.966 498.501 257.544 497.083C257.57 497.107 259.587 499.847 268.119 499.41C276.689 498.974 279.22 495.834 281.983 495.083C284.758 494.307 289.744 492.549 290.412 490.755Z" fill="white"/>
<path fill-rule="evenodd" clip-rule="evenodd" d="M290.412 490.755C290.437 491.955 290.424 492.985 290.322 493.519C289.988 495.313 287.726 497.034 284.771 497.531C281.816 498.028 280.325 501.265 276.136 502.368C275.905 502.429 275.648 502.49 275.365 502.538C278.372 500.065 280.107 497.653 281.032 495.422C281.353 495.277 281.674 495.155 281.995 495.07C284.758 494.307 289.743 492.549 290.412 490.755Z" fill="#E7E0C3"/>
<path fill-rule="evenodd" clip-rule="evenodd" d="M277.704 476.413C277.499 477.723 277.871 480.256 277.794 481.056C277.691 482.22 277.653 483.287 279.914 483.784C282.176 484.281 284.938 484.002 286.159 483.287C286.943 482.826 287.482 480.341 287.881 477.989C288.369 475.116 288.793 474.837 286.326 474.728L280.57 474.171C278.796 474.086 278.09 474.037 277.704 476.413Z" fill="white"/>
<path fill-rule="evenodd" clip-rule="evenodd" d="M327.828 415.059C328.663 416.126 331.233 417.58 331.786 418.187C332.582 419.072 335.332 420.017 337.298 418.865C341.024 416.659 339.097 412.501 336.604 409.276C336.231 408.803 335.769 408.464 335.46 408.512C334.445 408.682 336.334 409.943 332.903 412.986C328.946 415.592 326.312 413.119 327.828 415.059Z" fill="white"/>
</svg>
