<svg width="604" height="521" viewBox="0 0 604 521" fill="none" xmlns="http://www.w3.org/2000/svg">
<path fill-rule="evenodd" clip-rule="evenodd" d="M320.628 235C281.883 235 250.482 266.343 250.482 305C250.482 306.617 250.54 308.22 250.642 309.808C226.131 313.524 206.321 331.534 200.015 355.067C193.285 355.679 187.109 358.199 182.029 362.09C174.015 353.478 162.569 348.072 149.869 348.072C125.635 348.072 106 367.671 106 391.859C106 398.329 107.401 404.478 109.927 410H489.314C491.051 404.274 492 398.212 492 391.917C492 357.602 464.131 329.771 429.737 329.771C427.153 329.771 424.599 329.931 422.088 330.237C416.788 317.502 404.934 308.162 390.715 306.413C390.73 305.933 390.73 305.466 390.73 304.985C390.774 266.343 359.372 235 320.628 235Z" fill="#575631"/>
<path fill-rule="evenodd" clip-rule="evenodd" d="M191.886 49.901C191.886 100.472 191.886 80.1096 191.886 99.8019C191.886 119.494 206.335 132.632 214.535 141.168C222.75 149.703 227.673 161.85 227.673 199.939C227.673 238.027 226.61 304.839 226.61 337.014C226.61 423.78 61.2928 423.78 61.2928 337.014C61.2928 304.839 60.2295 238.027 60.2295 199.939C60.2295 161.85 65.1526 149.703 73.3675 141.168C81.5823 132.632 96.0166 119.494 96.0166 99.8019C96.0166 80.1096 96.0166 100.457 96.0166 49.901C96.0166 -16.6337 191.886 -16.6337 191.886 49.901Z" fill="#5E855E"/>
<path fill-rule="evenodd" clip-rule="evenodd" d="M147.418 53.9208C147.418 52.2021 146.034 50.8184 144.315 50.8184C142.597 50.8184 141.213 52.2021 141.213 53.9208V124.854L126.604 116.421C125.715 115.911 124.579 116.217 124.069 117.105C123.56 117.994 123.865 119.13 124.754 119.64L141.198 129.136V230.584L97.9391 205.605C97.0506 205.095 95.9145 205.401 95.4047 206.289C94.8949 207.178 95.2008 208.314 96.0893 208.824L141.184 234.866V332.149L97.9245 307.169C97.036 306.659 95.8999 306.965 95.3902 307.854C94.8804 308.742 95.1862 309.878 96.0747 310.388L141.169 336.431V448.278C141.169 449.997 142.553 451.381 144.272 451.381C145.99 451.381 147.374 449.997 147.374 448.278V362.328L184.414 340.946C185.302 340.436 185.608 339.3 185.098 338.412C184.589 337.523 183.452 337.217 182.564 337.727L147.374 358.046V276.713L184.414 255.331C185.302 254.821 185.608 253.685 185.098 252.796C184.589 251.908 183.452 251.602 182.564 252.112L147.374 272.431V191.112L184.414 169.73C185.302 169.22 185.608 168.084 185.098 167.196C184.589 166.307 183.452 166.001 182.564 166.511L147.374 186.83V105.511L171.509 91.5868C172.397 91.0771 172.703 89.941 172.193 89.0525C171.684 88.164 170.547 87.8581 169.659 88.3679L147.374 101.229V53.9208H147.418Z" fill="#243C20"/>
<path fill-rule="evenodd" clip-rule="evenodd" d="M220.377 273C262.722 273 297.058 307.212 297.058 349.403C297.058 351.161 297 352.92 296.883 354.65C323.678 358.704 345.339 378.368 352.224 404.035C359.576 404.703 366.329 407.45 371.887 411.708C380.638 402.305 393.154 396.419 407.04 396.419C433.529 396.419 455 417.812 455 444.205C455 451.269 453.468 457.969 450.697 464H35.9319C34.0356 457.765 33 451.138 33 444.278C33 406.825 63.4711 376.464 101.06 376.464C103.89 376.464 106.676 376.639 109.418 376.973C115.209 363.064 128.176 352.876 143.711 350.973C143.696 350.449 143.696 349.941 143.696 349.417C143.696 307.212 178.033 273 220.377 273Z" fill="#98976D"/>
<path fill-rule="evenodd" clip-rule="evenodd" d="M462.642 41.6567C449.664 41.6567 439.046 52.2749 439.046 65.2526V161.748V166.453C437.546 204.221 398.146 206.144 398.146 273.974C398.146 355.948 398.146 331.988 398.146 413.962C398.146 430.698 411.838 444.375 428.559 444.375H496.74C513.461 444.375 527.152 430.683 527.152 413.962C527.152 293.536 527.152 279.029 527.152 158.602C527.152 122.946 518.981 120.543 502.245 110.886C487.534 102.394 486.325 87.3629 486.252 83.8381V83.0807V65.2526C486.238 52.2749 475.62 41.6567 462.642 41.6567Z" fill="#8CA36E"/>
<path fill-rule="evenodd" clip-rule="evenodd" d="M465.512 112.794C465.512 111.207 464.23 109.925 462.643 109.925C461.055 109.925 459.788 111.207 459.788 112.794V178.236L446.315 170.458C445.499 169.992 444.451 170.269 443.984 171.085C443.518 171.9 443.795 172.949 444.611 173.415L459.788 182.184V275.795L419.879 252.753C419.063 252.287 418.014 252.564 417.548 253.379C417.082 254.195 417.359 255.244 418.175 255.71L459.788 279.743V369.509L419.879 346.466C419.063 346 418.014 346.277 417.548 347.093C417.082 347.908 417.359 348.957 418.175 349.423L459.788 373.456V476.652C459.788 478.239 461.07 479.521 462.643 479.521C464.23 479.521 465.512 478.239 465.512 476.652V397.343L499.683 377.607C500.498 377.141 500.789 376.092 500.309 375.277C499.843 374.461 498.794 374.17 497.978 374.65L465.498 393.396V318.37L499.668 298.634C500.484 298.168 500.775 297.119 500.294 296.303C499.828 295.488 498.779 295.196 497.964 295.677L465.483 314.423V239.382L499.653 219.646C500.469 219.18 500.76 218.131 500.28 217.315C499.814 216.5 498.765 216.208 497.949 216.689L465.468 235.435V160.394L499.639 140.658C500.454 140.192 500.746 139.143 500.265 138.327C499.799 137.512 498.75 137.22 497.935 137.701L465.454 156.447V112.794H465.512Z" fill="#575631"/>
<path fill-rule="evenodd" clip-rule="evenodd" d="M416.328 341C443.531 341 465.573 363.026 465.573 390.209C465.573 391.342 465.529 392.475 465.457 393.594C482.671 396.209 496.571 408.864 501.006 425.397C505.731 425.819 510.064 427.591 513.626 430.337C519.253 424.279 527.278 420.487 536.206 420.487C553.217 420.487 567 434.26 567 451.258C567 455.806 566.011 460.121 564.238 464H297.876C296.654 459.976 296 455.719 296 451.287C296 427.17 315.57 407.614 339.705 407.614C341.523 407.614 343.311 407.73 345.07 407.948C348.793 398.999 357.124 392.432 367.098 391.211C367.083 390.877 367.083 390.543 367.083 390.209C367.098 363.026 389.139 341 416.328 341Z" fill="#BAC097"/>
<path fill-rule="evenodd" clip-rule="evenodd" d="M12.5063 464H585.524H591.494C598.366 464 604 469.704 604 476.662C604 483.634 598.366 489.324 591.494 489.324H507.619C503.79 489.324 500.674 492.493 500.674 496.355C500.674 500.216 503.804 503.386 507.619 503.386H555.11C559.886 503.386 563.802 507.351 563.802 512.185C563.802 517.02 559.9 520.985 555.11 520.985H40.6636C35.8882 520.985 31.9718 517.02 31.9718 512.185C31.9718 507.351 35.8882 503.386 40.6636 503.386H52.8205C56.635 503.386 59.7652 500.216 59.7652 496.355C59.7652 492.478 56.635 489.324 52.8205 489.324H12.5063C5.61982 489.324 0 483.619 0 476.662C0 469.704 5.63438 464 12.5063 464ZM19.0288 521C23.6149 521 27.3712 517.197 27.3712 512.554V511.846C27.3712 507.203 23.6149 503.4 19.0288 503.4C14.4427 503.4 10.6864 507.203 10.6864 511.846V512.554C10.6864 517.197 14.4427 521 19.0288 521Z" fill="#1E0602"/>
<path fill-rule="evenodd" clip-rule="evenodd" d="M240.455 371.954C236.399 409.641 232.119 447.403 231.685 473.657C231.566 480.683 224.824 476.922 223.388 474.936C221.953 472.949 221.532 331.66 220.07 318.849C219.556 314.381 212.722 316.056 210.299 324.957C205.847 341.33 197.972 462.969 198.157 477.133C198.183 478.734 187.885 484.059 188.201 475.345C188.241 474.054 186.884 404.949 187.674 349.573C188.899 262.617 246.552 315.237 240.455 371.954Z" fill="#F4AD85"/>
<path fill-rule="evenodd" clip-rule="evenodd" d="M223.032 471.435C221.874 449.413 221.4 330.555 220.056 318.849C219.543 314.38 212.708 316.056 210.285 324.957C205.834 341.33 197.959 462.969 198.143 477.133C198.157 478.386 191.809 481.937 189.241 479.181C188.991 478.622 188.846 478.299 188.846 478.299C188.846 478.299 195.773 474.588 196.142 463.242C196.853 440.848 201.686 357.976 187.503 364.146C187.542 359.218 187.595 354.339 187.661 349.56C188.793 269.543 237.703 307.702 240.758 358.498C237.347 359.59 229.972 362.321 228.405 366.033C225.429 373.108 224.652 461.268 225.153 466.234C225.271 467.301 224.442 469.151 223.032 471.435Z" fill="#ED9072"/>
<path fill-rule="evenodd" clip-rule="evenodd" d="M186.37 251.085C172.24 264.777 179.918 350.355 180.365 350.777C187.793 357.815 202.054 364.481 217.739 362.979C225.798 362.197 249.041 360.894 250.45 355.382C253.61 343.031 258.272 257.875 247.922 251.035C240.837 246.343 235.056 241.961 227.984 243.637C225.205 244.295 186.37 251.085 186.37 251.085Z" fill="#273A88"/>
<path fill-rule="evenodd" clip-rule="evenodd" d="M186.37 251.084C172.24 264.776 179.918 350.354 180.365 350.777C186.12 356.226 195.97 361.452 207.401 362.83L203.924 358.175C182.96 330.083 189.939 283.968 198.775 285.01C207.612 286.053 227.563 285.184 254.045 281.46C253.782 269.369 233.028 246.057 222.914 244.592C211.707 246.653 186.37 251.084 186.37 251.084Z" fill="#0E1B51"/>
<path fill-rule="evenodd" clip-rule="evenodd" d="M246.117 244.109C246.117 244.109 248.013 249.359 247.17 250.849C243.273 257.751 196.418 255.752 186.87 251.383C181.813 249.061 185.632 243.873 185.632 243.438C185.632 242.979 246.117 244.109 246.117 244.109Z" fill="#250C07"/>
<path fill-rule="evenodd" clip-rule="evenodd" d="M236.874 248.006C236.874 248.006 237.44 253.456 237.282 254.473C237.124 255.491 234.345 256.633 231.817 256.919C229.289 257.204 220.255 257.974 220.018 255.342C219.781 252.711 219.833 249.309 220.202 248.689C220.571 248.068 236.874 248.006 236.874 248.006Z" fill="#4E3935"/>
<path fill-rule="evenodd" clip-rule="evenodd" d="M232.449 474.998C232.449 474.03 232.804 467.736 232.633 466.594C232.449 465.464 231.935 465.651 231.935 465.651C231.935 465.651 228.09 467.24 222.835 466.16C222.835 466.16 222.493 466.023 222.23 467.066C221.953 468.121 222.137 474.948 222.137 474.948C222.137 474.948 230.605 478.598 232.449 474.998Z" fill="#F6ECDB"/>
<path fill-rule="evenodd" clip-rule="evenodd" d="M198.947 477.828C198.947 476.859 199.355 470.566 199.157 469.424C198.947 468.294 198.367 468.48 198.367 468.48C198.367 468.48 194.035 470.069 188.122 468.989C188.122 468.989 187.74 468.853 187.437 469.896C187.134 470.951 187.332 477.778 187.332 477.778C187.332 477.778 196.879 481.44 198.947 477.828Z" fill="#F6ECDB"/>
<path fill-rule="evenodd" clip-rule="evenodd" d="M180.946 483.799C179.826 491.681 199.329 489.161 200.857 485.748C201.766 483.724 202.253 478.386 200.554 475.953C197.894 472.155 192.008 471.609 188.149 473.409C186.253 474.302 181.183 482.148 180.946 483.799Z" fill="#4E3735"/>
<path fill-rule="evenodd" clip-rule="evenodd" d="M180.891 484.32C180.325 491.346 199.275 489.298 200.868 485.76C201.211 485.003 201.395 484.271 201.474 483.551C201.461 483.575 199.762 485.698 194.166 486.008C188.542 486.331 181.853 486.406 180.891 484.32Z" fill="white"/>
<path fill-rule="evenodd" clip-rule="evenodd" d="M229.537 474.216C229.537 474.216 231.855 472.776 234.357 473.359C236.859 473.943 251.029 478.114 253.347 478.97C255.664 479.827 258.377 485.164 256.547 487.039C255.862 487.734 246.196 487.734 236.556 487.523C228.708 487.349 220.596 487.262 219.542 485.388C218.423 483.414 217.962 480.062 219.345 475.929C221.649 469.101 220.938 475.445 229.537 474.216Z" fill="#4E3735"/>
<path fill-rule="evenodd" clip-rule="evenodd" d="M233.396 472.713C234.923 473.073 234.805 473.483 235.121 473.582C233.053 474.004 228.892 475.171 228.062 477.691C227.285 480.087 226.811 484.196 229.709 486.902C226.337 486.84 223.664 486.045 221.715 486.182C219.766 486.319 217.053 482.756 219.358 475.929C219.634 475.084 220.108 472.763 221.32 472.291C222.545 471.82 222.492 473.731 226.034 473.719C229.893 473.707 232.395 472.478 233.396 472.713Z" fill="#331B16"/>
<path fill-rule="evenodd" clip-rule="evenodd" d="M256.943 484.27C257.338 485.251 257.312 486.269 256.561 487.039C254.717 488.926 222.098 488.044 220.505 486.592C219.636 485.797 218.911 484.382 218.635 482.495C220.097 484.37 254.441 486.964 256.943 484.27Z" fill="white"/>
<path fill-rule="evenodd" clip-rule="evenodd" d="M189.096 478.387C189.057 478.461 189.017 478.548 188.991 478.622C188.965 478.672 188.938 478.722 188.925 478.771C187.832 481.316 187.832 483.91 188.82 486.17C184.961 486.157 181.603 485.748 180.905 484.333C180.905 484.159 180.918 483.973 180.958 483.786C181.169 482.346 185.014 476.239 187.279 474.079C187.621 473.756 187.924 473.52 188.174 473.396C188.174 473.396 188.174 473.396 188.188 473.396C189.873 472.614 191.954 472.279 193.969 472.465C194.087 472.478 194.206 472.49 194.337 472.503C194.127 472.652 193.916 472.813 193.705 472.962C191.664 474.526 190.202 476.264 189.281 478.039C189.202 478.163 189.149 478.275 189.096 478.387Z" fill="#331B16"/>
<path fill-rule="evenodd" clip-rule="evenodd" d="M180.906 484.345C181.604 485.76 184.962 486.17 188.82 486.182C189.268 487.2 189.913 488.144 190.743 488.975C188.214 489.075 185.712 488.839 183.856 488.119C181.959 487.386 180.748 486.17 180.893 484.308C180.893 484.32 180.906 484.333 180.906 484.345Z" fill="#D9D4D6"/>
<path fill-rule="evenodd" clip-rule="evenodd" d="M227.838 484.307C228.154 485.077 228.589 485.971 229.063 486.877C229.142 487.026 229.221 487.175 229.3 487.324C229.379 487.461 229.445 487.609 229.524 487.746C224.691 487.473 221.004 487.063 220.49 486.604C220.148 486.294 219.832 485.884 219.555 485.387C219.121 484.618 218.791 483.65 218.62 482.508L218.633 482.52C219.16 483.116 222.9 483.761 227.838 484.307Z" fill="#D9D4D6"/>
<path fill-rule="evenodd" clip-rule="evenodd" d="M189.531 66.2742C199.302 66.2742 207.23 73.747 207.23 82.9578C207.23 92.1685 199.302 99.6414 189.531 99.6414C179.76 99.6414 171.832 92.1685 171.832 82.9578C171.832 73.747 179.76 66.2742 189.531 66.2742Z" fill="#3C2724"/>
<path fill-rule="evenodd" clip-rule="evenodd" d="M198.157 68.3965C203.569 71.2516 207.23 76.7011 207.23 82.9698C207.23 92.1806 199.302 99.6534 189.531 99.6534C179.76 99.6534 171.832 92.1806 171.832 82.9698C171.832 82.8333 171.832 82.6967 171.832 82.5602C186.265 83.094 194.245 74.6653 198.157 68.3965Z" fill="#37211D"/>
<path fill-rule="evenodd" clip-rule="evenodd" d="M239.783 104.694L238.4 108.517C238.4 108.517 237.899 129.247 237.755 135.007C237.61 140.767 238.676 142.517 238.545 142.927C238.426 143.349 235.252 143.697 234.159 140.966C233.066 138.235 234.634 129.371 234.95 116.462C235.266 103.552 235.266 103.49 235.266 103.49L239.783 104.694Z" fill="#3C2724"/>
<path fill-rule="evenodd" clip-rule="evenodd" d="M232.263 148.19H175.005C169.566 148.19 165.115 152.386 165.115 157.512V244.53C165.115 249.657 169.566 253.853 175.005 253.853H232.263C237.702 253.853 242.153 249.657 242.153 244.53V157.512C242.153 152.386 237.702 148.19 232.263 148.19Z" fill="#331B16"/>
<path fill-rule="evenodd" clip-rule="evenodd" d="M174.716 148.19C169.04 148.19 164.392 152.572 164.392 157.922V244.121C164.392 249.471 169.04 253.853 174.716 253.853C180.392 253.853 185.04 249.471 185.04 244.121V157.922C185.04 152.572 180.392 148.19 174.716 148.19Z" fill="#4E3735"/>
<path fill-rule="evenodd" clip-rule="evenodd" d="M236.847 154.993C260.761 166.649 261.657 250.551 252.504 269.817C251.345 272.275 240.481 265.323 240.007 264.305C239.731 263.697 243.22 238.883 241.666 213.448C240.837 199.892 235.148 190.992 233.726 180.217C232.198 168.697 235.029 155.738 236.847 154.993Z" fill="#F3DDC7"/>
<path fill-rule="evenodd" clip-rule="evenodd" d="M238.493 111.198C260.393 85.3409 225.93 46.0276 195.405 77.9425C195.405 77.9425 180.945 74.4791 182.341 92.7268C183.381 106.22 185.949 112.017 183.829 119.403H236.636C236.702 118.807 236.768 118.174 236.847 117.516L238.493 111.198Z" fill="#3C2724"/>
<path fill-rule="evenodd" clip-rule="evenodd" d="M228.062 149.469C228.062 149.469 230.973 147.768 235.898 152.634C240.823 157.512 240.178 169.938 240.178 169.938C240.178 169.938 225.797 154.124 228.062 149.469Z" fill="#4E3735"/>
<path fill-rule="evenodd" clip-rule="evenodd" d="M252.492 247.584C252.492 247.584 253.032 251.768 252.189 253.257C251.347 254.747 240.693 259.154 226.484 259.377C212.275 259.6 197.104 256.956 192.047 254.635C186.99 252.314 189.94 248.019 189.94 247.584C189.953 247.15 252.492 247.584 252.492 247.584Z" fill="#250C07"/>
<path fill-rule="evenodd" clip-rule="evenodd" d="M201.437 150.598C210.721 148.327 230.276 150.437 234.569 156.346C248.318 175.264 248.634 209.127 248.304 246.715C248.146 263.908 188.004 255.504 188.162 247.336C188.176 246.914 188.123 246.504 188.189 246.095C195.313 204.261 186.398 207.228 181.828 180.539C180.314 171.664 177.074 166.165 180.511 161.299C183.724 156.755 193.246 152.609 201.437 150.598Z" fill="white"/>
<path fill-rule="evenodd" clip-rule="evenodd" d="M191.955 251.035C189.559 249.856 188.15 248.59 188.163 247.336C188.176 246.914 188.123 246.504 188.189 246.095C195.313 204.261 186.398 207.228 181.829 180.539C181.684 179.658 188.136 199.271 187.952 198.464C196.551 186.386 198.434 157.922 198.434 157.922C207.811 178.553 205.058 204.038 205.796 216.873C206.533 229.709 227.867 246.355 227.867 246.355C227.867 246.355 198.487 250.725 191.955 251.035Z" fill="#F3DDC7"/>
<path fill-rule="evenodd" clip-rule="evenodd" d="M203.384 125.659L203.99 132.164C203.99 132.164 204.675 145.508 204.78 147.544C204.833 148.612 202.884 149.444 202.713 151.281C201.778 161.323 230.42 162.428 225.837 148.835C225.653 148.277 224.678 148.289 224.073 147.681C221.742 145.347 221.281 134.498 223.348 131.556C225.416 128.626 203.384 125.659 203.384 125.659Z" fill="#E37B64"/>
<path fill-rule="evenodd" clip-rule="evenodd" d="M236.926 111.012C233.12 110.975 229.999 113.855 229.959 117.43C229.92 121.017 232.962 123.947 236.768 123.996C240.573 124.033 243.681 121.166 243.734 117.579C243.773 113.991 240.731 111.049 236.926 111.012Z" fill="#E37B64"/>
<path fill-rule="evenodd" clip-rule="evenodd" d="M189.743 110.528C185.937 110.491 182.829 113.371 182.777 116.946C182.737 120.533 185.792 123.475 189.585 123.512C193.391 123.55 196.499 120.67 196.551 117.095C196.604 113.507 193.549 110.565 189.743 110.528Z" fill="#E37B64"/>
<path fill-rule="evenodd" clip-rule="evenodd" d="M215.288 77.9548C202.317 77.8182 191.585 87.7241 191.44 99.9513L191.203 120.16C191.058 132.388 201.567 142.504 214.538 142.641C227.509 142.778 238.242 132.872 238.387 120.644L238.624 100.435C238.755 88.1958 228.26 78.0913 215.288 77.9548Z" fill="#F4AD85"/>
<path fill-rule="evenodd" clip-rule="evenodd" d="M204.714 80.2146C196.958 83.8021 191.545 91.2874 191.453 99.9519L191.216 120.161C191.098 130.849 199.091 139.911 209.758 142.12C186.383 130.923 198.696 110.863 202.278 104.408C205.873 97.9534 207.295 95.1355 213.551 98.4499C219.806 101.764 224.573 102.013 224.573 102.013L230.551 98.2761C230.551 98.2761 230.209 89.9219 228.036 87.6875C225.863 85.4531 217.527 84.1248 207.322 80.8477C206.492 80.587 205.623 80.376 204.714 80.2146Z" fill="#ED9072"/>
<path fill-rule="evenodd" clip-rule="evenodd" d="M234.541 107.3L228.01 107.238C227.325 107.226 226.745 107.759 226.745 108.405C226.732 109.05 227.298 109.597 227.983 109.597L234.515 109.659C235.2 109.671 235.779 109.137 235.779 108.492C235.792 107.846 235.226 107.3 234.541 107.3Z" fill="#331B16"/>
<path fill-rule="evenodd" clip-rule="evenodd" d="M208.192 107.027L201.66 106.965C200.975 106.953 200.396 107.487 200.396 108.132C200.383 108.778 200.949 109.324 201.634 109.324L208.165 109.386C208.85 109.398 209.43 108.865 209.43 108.219C209.443 107.574 208.876 107.04 208.192 107.027Z" fill="#331B16"/>
<path fill-rule="evenodd" clip-rule="evenodd" d="M232.62 121.303C230.736 121.278 229.196 122.705 229.169 124.48C229.143 126.256 230.657 127.708 232.541 127.733C234.424 127.758 235.964 126.33 235.991 124.555C236.017 122.78 234.503 121.327 232.62 121.303Z" fill="#E37B64"/>
<path fill-rule="evenodd" clip-rule="evenodd" d="M229.354 249.893C228.683 249.955 227.998 250.017 227.3 250.067C227.932 248.887 228.406 247.882 228.735 246.864C233.99 231.074 227.932 174.469 220.808 159.151C220.623 158.754 220.847 158.282 221.321 158.108C221.782 157.922 222.309 158.096 222.506 158.493C229.71 174.072 235.86 231.087 230.487 247.236C230.197 248.105 229.828 248.962 229.354 249.893Z" fill="#F6ECDB"/>
<path fill-rule="evenodd" clip-rule="evenodd" d="M203.266 121.005C201.383 120.98 199.842 122.407 199.816 124.183C199.789 125.958 201.304 127.41 203.187 127.435C205.07 127.46 206.611 126.032 206.637 124.257C206.664 122.482 205.149 121.03 203.266 121.005Z" fill="#E37B64"/>
<path fill-rule="evenodd" clip-rule="evenodd" d="M188.2 110.677L189.754 109.187L193.441 109.473C193.441 109.473 195.667 116.039 191.255 116.486L191.295 112.737C191.321 110.975 189.267 110.341 188.2 110.677Z" fill="#3C2724"/>
<path fill-rule="evenodd" clip-rule="evenodd" d="M206.598 88.5805C207.467 97.394 198.407 109.696 189.742 110.527L188.965 90.7156L195.668 81.2566L212.866 75.6333C212.866 75.6333 227.194 78.1284 228.208 78.5505C229.235 78.9725 232.567 81.0828 234.002 83.7144C235.438 86.3585 240.034 94.5513 240.034 94.5513L238.572 104.06C238.585 104.06 220.162 106.394 206.598 88.5805Z" fill="#3C2724"/>
<path fill-rule="evenodd" clip-rule="evenodd" d="M238.506 74.864C230.144 79.7921 215.158 85.2044 201.62 72.4558C200.711 73.1261 199.803 73.8585 198.907 74.6406C206.321 83.33 221.452 95.5323 245.262 90.1697C244.616 84.4347 242.193 79.0722 238.506 74.864Z" fill="#4E3735"/>
<path fill-rule="evenodd" clip-rule="evenodd" d="M196.089 104.694L194.706 108.517C194.706 108.517 194.206 129.247 194.061 135.007C193.916 140.767 194.983 142.517 194.851 142.927C194.733 143.349 191.546 143.697 190.466 140.966C189.373 138.235 190.94 129.371 191.256 116.462C191.572 103.552 191.572 103.49 191.572 103.49L196.089 104.694Z" fill="#3C2724"/>
<path fill-rule="evenodd" clip-rule="evenodd" d="M263.514 273.367C263.514 273.367 262.013 278.332 257.878 279.275C253.743 280.219 249.713 277.004 250.503 273.739C251.28 270.474 263.514 273.367 263.514 273.367Z" fill="#F4AD85"/>
<path fill-rule="evenodd" clip-rule="evenodd" d="M223.823 154.794L221.005 153.378C221.005 153.378 221.255 156.718 220.952 156.867C220.663 157.016 219.833 155.315 218.529 154.893C217.226 154.471 215.026 158.902 215.026 158.902C215.026 158.902 216.857 161.683 218.556 161.596C220.254 161.497 226.444 159.511 226.194 158.145C225.957 156.767 223.823 154.794 223.823 154.794Z" fill="#E0CAB2"/>
<path fill-rule="evenodd" clip-rule="evenodd" d="M214.815 157.016C214.815 157.016 250.357 173.948 251.45 176.008C252.543 178.069 248.672 181.805 247.315 183.096C245.959 184.387 216.79 161.944 214.248 160.653C211.707 159.35 214.815 157.016 214.815 157.016Z" fill="#273A88"/>
<path fill-rule="evenodd" clip-rule="evenodd" d="M214.815 157.016C214.815 157.016 221.228 160.07 228.681 163.744C228.734 165.171 229.011 166.897 229.84 168.56C231.552 171.999 243.602 179.261 250.45 179.633C249.436 181.061 248.027 182.426 247.315 183.096C245.959 184.387 216.79 161.944 214.248 160.653C211.707 159.35 214.815 157.016 214.815 157.016Z" fill="#0E1B51"/>
<path fill-rule="evenodd" clip-rule="evenodd" d="M223.467 154.818C223.467 154.818 212.3 179.757 212.103 186.299C212.103 186.299 211.852 189.092 214.157 189.539C216.475 189.998 222.164 191.848 222.954 191.438C223.744 191.028 224.784 190.432 225.14 189.303C225.482 188.173 225.495 156.271 225.495 156.271L223.467 154.818Z" fill="#273A88"/>
<path fill-rule="evenodd" clip-rule="evenodd" d="M223.468 154.818C222.677 156.593 221.426 157.661 222.941 158.307C223.902 158.716 222.73 183.506 222.322 186.336C222.006 188.57 220.913 189.65 218.529 190.656C220.57 191.19 222.519 191.661 222.954 191.438C223.744 191.028 224.784 190.432 225.14 189.303C225.482 188.173 225.496 156.271 225.496 156.271L223.468 154.818Z" fill="#0E1B51"/>
<path fill-rule="evenodd" clip-rule="evenodd" d="M204.096 145.397C208.376 152.373 220.412 153.552 219.187 155.092C217.396 157.351 215.553 162.118 213.314 167.654C212.339 170.062 202.015 154.707 201.08 152.001C201.093 152.001 202.318 146.253 204.096 145.397Z" fill="#F3DDC7"/>
<path fill-rule="evenodd" clip-rule="evenodd" d="M224.099 147.681C224.099 147.681 225.732 149.655 221.479 152.498C221.479 152.498 220.333 153.342 221.623 154.211C222.914 155.08 227.918 161.895 228.827 163.707C229.604 165.296 229.92 147.979 224.099 147.681Z" fill="#F3DDC7"/>
<path fill-rule="evenodd" clip-rule="evenodd" d="M223.111 161C223.901 160.578 225.126 161.162 225.85 162.291C226.574 163.421 226.508 164.687 225.718 165.109C224.928 165.531 223.703 164.948 222.979 163.818C222.255 162.689 222.321 161.423 223.111 161Z" fill="#F9C552"/>
<path fill-rule="evenodd" clip-rule="evenodd" d="M223.929 161.634C224.403 161.385 225.14 161.721 225.562 162.403C225.996 163.086 225.957 163.831 225.483 164.092C225.008 164.34 224.284 164.005 223.85 163.322C223.415 162.639 223.454 161.894 223.929 161.634Z" fill="#FDD42F"/>
<path fill-rule="evenodd" clip-rule="evenodd" d="M187.807 155.663C187.807 155.663 203.056 195.709 190.783 217.432C190.783 217.432 188.979 220.138 186.635 220.908C186.635 220.908 185.607 221.293 185.91 222.447C186.213 223.602 187.833 223.713 188.926 223.552C190.006 223.391 199.395 216.663 202.292 197.484C205.176 178.305 201.476 159.04 197.525 151.703C197.525 151.703 196.34 150.723 194.984 151.008C193.614 151.281 187.688 153.267 187.807 155.663Z" fill="#4E3735"/>
<path fill-rule="evenodd" clip-rule="evenodd" d="M225.311 276.892L262.829 275.924C265.028 275.862 267.017 274.968 268.426 273.565C269.835 272.163 270.678 270.251 270.625 268.166C270.559 266.093 269.611 264.218 268.11 262.89C266.622 261.562 264.594 260.767 262.381 260.817L224.876 261.785C222.677 261.847 220.689 262.741 219.28 264.144C217.871 265.546 217.028 267.458 217.08 269.544C217.146 271.617 218.094 273.491 219.596 274.819C221.084 276.147 223.112 276.954 225.311 276.892Z" fill="#4C7B37"/>
<path fill-rule="evenodd" clip-rule="evenodd" d="M270.32 266.366C269.925 265.013 269.148 263.821 268.095 262.89C266.607 261.562 264.579 260.767 262.366 260.817L224.862 261.785C222.662 261.847 220.674 262.741 219.265 264.144C218.277 265.124 217.566 266.366 217.25 267.731C217.645 269.072 218.422 270.276 219.476 271.207C220.964 272.535 222.992 273.33 225.204 273.28L262.722 272.312C264.921 272.25 266.91 271.356 268.319 269.953C269.293 268.96 270.004 267.731 270.32 266.366Z" fill="#5C8E49"/>
<path fill-rule="evenodd" clip-rule="evenodd" d="M198.605 277.029L229.301 276.234C231.342 276.184 233.173 275.353 234.476 274.049C235.78 272.746 236.57 270.983 236.504 269.059C236.452 267.135 235.569 265.41 234.187 264.181C232.804 262.952 230.934 262.207 228.893 262.269L198.196 263.063L198.605 277.029Z" fill="white"/>
<path fill-rule="evenodd" clip-rule="evenodd" d="M198.09 275.763C197.55 275.775 197.128 276.197 197.141 276.706C197.155 277.215 197.602 277.612 198.142 277.6L229.695 276.781C231.894 276.719 233.883 275.825 235.292 274.41C236.701 273.007 237.543 271.095 237.491 269.01C237.425 266.937 236.477 265.062 234.976 263.734C233.487 262.406 231.459 261.611 229.247 261.661L197.695 262.48C197.155 262.493 196.733 262.915 196.746 263.424C196.76 263.933 197.207 264.33 197.747 264.318L229.3 263.498C230.972 263.461 232.5 264.057 233.632 265.075C234.765 266.08 235.489 267.495 235.529 269.072C235.581 270.648 234.936 272.088 233.856 273.156C232.79 274.223 231.288 274.906 229.616 274.943L198.09 275.763Z" fill="#3E6E35"/>
<path fill-rule="evenodd" clip-rule="evenodd" d="M198.513 273.727L218.213 273.218L223.165 273.094L227.655 272.982C229.025 272.945 230.263 272.386 231.145 271.505C232.027 270.624 232.554 269.432 232.515 268.141C232.475 266.85 231.883 265.683 230.948 264.851C230.013 264.02 228.748 263.523 227.379 263.56L229.301 263.511C230.974 263.473 232.502 264.069 233.634 265.087C234.767 266.093 235.491 267.508 235.53 269.084C235.57 270.611 234.977 272.014 233.963 273.069C233.924 273.106 233.897 273.143 233.858 273.168C232.791 274.236 231.29 274.919 229.618 274.956L220.017 275.204L198.539 275.763L198.513 273.727Z" fill="#FBE3D5"/>
<path fill-rule="evenodd" clip-rule="evenodd" d="M234.279 261.549L202.16 262.381C200.303 262.431 198.591 261.76 197.34 260.643C196.089 259.526 195.273 257.949 195.233 256.199C195.181 254.449 195.892 252.835 197.077 251.656C198.262 250.477 199.934 249.707 201.791 249.67L233.91 248.838C235.767 248.788 237.479 249.459 238.73 250.576C239.981 251.693 240.797 253.27 240.837 255.02C240.89 256.77 240.178 258.384 238.98 259.563C237.808 260.742 236.136 261.5 234.279 261.549Z" fill="#F08D1B"/>
<path fill-rule="evenodd" clip-rule="evenodd" d="M195.391 254.672C195.654 253.518 196.26 252.488 197.089 251.656C198.275 250.477 199.947 249.707 201.804 249.67L233.923 248.838C235.779 248.788 237.491 249.459 238.742 250.576C239.625 251.358 240.283 252.363 240.612 253.505C240.349 254.66 239.743 255.69 238.914 256.522C237.728 257.701 236.056 258.471 234.199 258.508L202.08 259.34C200.224 259.389 198.512 258.719 197.261 257.589C196.378 256.807 195.72 255.802 195.391 254.672Z" fill="#F6AF13"/>
<path fill-rule="evenodd" clip-rule="evenodd" d="M265.029 260.308L230.895 261.164C229.183 261.214 227.59 260.581 226.431 259.551C225.272 258.508 224.521 257.056 224.469 255.442C224.416 253.828 225.075 252.326 226.181 251.234C227.287 250.141 228.828 249.434 230.54 249.397L264.673 248.54L265.029 260.308Z" fill="white"/>
<path fill-rule="evenodd" clip-rule="evenodd" d="M265.397 259.228C265.845 259.216 266.227 259.551 266.24 259.973C266.253 260.395 265.897 260.755 265.45 260.767L230.592 261.649C228.735 261.698 227.023 261.028 225.772 259.911C224.521 258.794 223.704 257.217 223.665 255.467C223.612 253.717 224.323 252.103 225.522 250.923C226.707 249.744 228.379 248.987 230.236 248.937L265.094 248.056C265.542 248.044 265.924 248.379 265.937 248.801C265.95 249.223 265.594 249.583 265.147 249.595L230.289 250.477C228.88 250.514 227.616 251.085 226.72 251.991C225.811 252.885 225.271 254.114 225.311 255.43C225.35 256.758 225.956 257.949 226.918 258.794C227.866 259.638 229.169 260.159 230.565 260.122L265.397 259.228Z" fill="#F9C00B"/>
<path fill-rule="evenodd" clip-rule="evenodd" d="M264.948 257.527L240.072 258.148L235.911 258.259L232.118 258.359C230.96 258.384 229.893 257.974 229.116 257.266C228.339 256.571 227.825 255.59 227.799 254.498C227.773 253.406 228.207 252.4 228.958 251.668C229.695 250.935 230.736 250.451 231.895 250.427L230.275 250.464C228.866 250.501 227.601 251.072 226.706 251.978C225.797 252.872 225.257 254.101 225.297 255.417C225.336 256.695 225.903 257.862 226.811 258.694C226.838 258.719 226.877 258.743 226.904 258.781C227.852 259.625 229.155 260.146 230.551 260.109L238.637 259.898L265.001 259.24L264.948 257.527Z" fill="#FBE3D5"/>
<path fill-rule="evenodd" clip-rule="evenodd" d="M224.496 249.074L262 248.106C264.2 248.043 266.188 247.15 267.597 245.747C269.006 244.344 269.849 242.433 269.796 240.347C269.731 238.274 268.782 236.4 267.294 235.071C265.806 233.743 263.778 232.936 261.566 232.998L224.061 233.967C221.862 234.029 219.873 234.923 218.464 236.338C217.055 237.74 216.212 239.652 216.265 241.738C216.331 243.811 217.279 245.685 218.767 247.013C220.268 248.329 222.296 249.136 224.496 249.074Z" fill="#266C88"/>
<path fill-rule="evenodd" clip-rule="evenodd" d="M269.519 238.547C269.124 237.207 268.347 236.002 267.293 235.071C265.805 233.743 263.777 232.936 261.565 232.998L224.06 233.967C221.861 234.029 219.872 234.923 218.463 236.338C217.475 237.318 216.764 238.56 216.448 239.925C216.843 241.266 217.62 242.47 218.674 243.401C220.162 244.729 222.19 245.524 224.402 245.474L261.907 244.506C264.106 244.444 266.095 243.55 267.504 242.135C268.492 241.142 269.203 239.913 269.519 238.547Z" fill="#4490B0"/>
<path fill-rule="evenodd" clip-rule="evenodd" d="M197.801 249.21L228.498 248.416C230.539 248.366 232.37 247.535 233.673 246.231C234.977 244.928 235.767 243.153 235.714 241.241C235.662 239.317 234.779 237.591 233.397 236.362C232.014 235.134 230.144 234.389 228.103 234.438L197.406 235.233L197.801 249.21Z" fill="white"/>
<path fill-rule="evenodd" clip-rule="evenodd" d="M197.273 247.944C196.733 247.957 196.312 248.379 196.338 248.888C196.351 249.397 196.799 249.794 197.339 249.781L228.892 248.962C231.091 248.9 233.079 248.006 234.488 246.604C235.897 245.201 236.74 243.289 236.688 241.204C236.635 239.131 235.674 237.256 234.186 235.928C232.697 234.6 230.669 233.805 228.457 233.855L196.904 234.674C196.365 234.687 195.943 235.109 195.956 235.618C195.97 236.127 196.417 236.524 196.957 236.511L228.51 235.692C230.182 235.655 231.71 236.251 232.842 237.269C233.975 238.274 234.699 239.689 234.739 241.266C234.791 242.842 234.146 244.282 233.066 245.35C231.999 246.417 230.498 247.1 228.826 247.137L197.273 247.944Z" fill="#2A7D9E"/>
<path fill-rule="evenodd" clip-rule="evenodd" d="M197.695 245.908L217.396 245.399L222.347 245.275L226.838 245.164C228.208 245.126 229.445 244.568 230.328 243.686C231.21 242.805 231.737 241.613 231.697 240.322C231.658 239.031 231.065 237.864 230.13 237.033C229.195 236.201 227.931 235.705 226.561 235.742L228.484 235.692C230.157 235.655 231.684 236.251 232.817 237.269C233.949 238.274 234.673 239.689 234.713 241.266C234.752 242.793 234.16 244.195 233.146 245.25C233.106 245.288 233.08 245.325 233.04 245.35C231.974 246.417 230.473 247.1 228.8 247.137L219.2 247.386L197.722 247.944L197.695 245.908Z" fill="#FBE3D5"/>
<path fill-rule="evenodd" clip-rule="evenodd" d="M233.475 233.731L201.356 234.563C199.499 234.612 197.788 233.942 196.536 232.812C195.285 231.695 194.469 230.119 194.429 228.368C194.377 226.618 195.088 225.004 196.286 223.825C197.472 222.646 199.144 221.876 201.001 221.839L233.12 221.007C234.976 220.958 236.688 221.628 237.939 222.757C239.19 223.875 240.007 225.451 240.046 227.201C240.099 228.952 239.388 230.566 238.203 231.745C236.991 232.924 235.332 233.681 233.475 233.731Z" fill="#B22424"/>
<path fill-rule="evenodd" clip-rule="evenodd" d="M194.575 226.854C194.839 225.699 195.444 224.669 196.274 223.837C197.459 222.658 199.132 221.888 200.988 221.851L233.107 221.019C234.964 220.97 236.676 221.64 237.927 222.77C238.809 223.552 239.468 224.557 239.797 225.699C239.534 226.854 238.928 227.884 238.098 228.716C236.913 229.895 235.241 230.665 233.384 230.702L201.265 231.534C199.408 231.583 197.696 230.913 196.445 229.796C195.576 228.989 194.918 227.983 194.575 226.854Z" fill="#D64341"/>
<path fill-rule="evenodd" clip-rule="evenodd" d="M264.211 232.49L230.078 233.346C228.366 233.396 226.772 232.775 225.613 231.732C224.455 230.69 223.704 229.237 223.651 227.623C223.599 226.01 224.27 224.508 225.363 223.415C226.469 222.323 228.01 221.615 229.722 221.566L263.856 220.709L264.211 232.49Z" fill="white"/>
<path fill-rule="evenodd" clip-rule="evenodd" d="M264.593 231.409C265.041 231.397 265.423 231.732 265.436 232.154C265.449 232.576 265.094 232.936 264.646 232.948L229.788 233.83C227.931 233.879 226.219 233.209 224.968 232.092C223.717 230.975 222.901 229.398 222.861 227.648C222.808 225.897 223.52 224.284 224.705 223.104C225.89 221.925 227.562 221.156 229.419 221.118L264.277 220.237C264.725 220.224 265.107 220.56 265.12 220.982C265.133 221.404 264.778 221.764 264.33 221.776L229.472 222.658C228.063 222.695 226.799 223.266 225.903 224.172C224.994 225.066 224.455 226.295 224.494 227.61C224.534 228.939 225.139 230.13 226.101 230.975C227.049 231.831 228.353 232.34 229.748 232.303L264.593 231.409Z" fill="#B22424"/>
<path fill-rule="evenodd" clip-rule="evenodd" d="M264.133 229.709L239.257 230.329L235.096 230.441L231.317 230.54C230.158 230.565 229.091 230.155 228.314 229.448C227.537 228.753 227.024 227.772 226.997 226.68C226.971 225.587 227.406 224.582 228.156 223.849C228.894 223.117 229.934 222.633 231.093 222.608L229.473 222.645C228.064 222.683 226.8 223.254 225.904 224.16C224.996 225.054 224.456 226.283 224.495 227.598C224.535 228.877 225.101 230.031 226.01 230.875C226.036 230.9 226.075 230.925 226.102 230.962C227.05 231.819 228.354 232.328 229.75 232.291L237.835 232.08L264.199 231.422L264.133 229.709Z" fill="#FBE3D5"/>
<path fill-rule="evenodd" clip-rule="evenodd" d="M231.447 112.216C230.262 112.179 229.261 113.048 229.222 114.165L229.116 116.809C229.077 117.926 229.999 118.87 231.184 118.907C232.369 118.944 233.37 118.075 233.409 116.958L233.515 114.314C233.554 113.209 232.633 112.253 231.447 112.216Z" fill="#250C07"/>
<path fill-rule="evenodd" clip-rule="evenodd" d="M205.215 111.993C204.03 111.955 203.029 112.824 202.989 113.942L202.884 116.586C202.845 117.703 203.766 118.646 204.952 118.683C206.137 118.721 207.138 117.852 207.177 116.735L207.282 114.09C207.335 112.986 206.4 112.042 205.215 111.993Z" fill="#250C07"/>
<path fill-rule="evenodd" clip-rule="evenodd" d="M213.327 127C213.274 129.955 215.776 132.4 218.911 132.45C222.045 132.499 224.639 130.141 224.692 127.186H224.679C224.692 126.677 224.257 126.255 223.717 126.243L214.328 126.094C213.801 126.082 213.353 126.491 213.327 127Z" fill="#250C07"/>
<path fill-rule="evenodd" clip-rule="evenodd" d="M215.381 131.208C216.342 131.966 217.58 132.425 218.923 132.45C220.029 132.462 221.057 132.189 221.939 131.693C221.518 130.588 220.266 129.744 218.726 129.669C217.251 129.582 215.96 130.228 215.381 131.208Z" fill="#D64341"/>
<path fill-rule="evenodd" clip-rule="evenodd" d="M223.85 126.255L215.027 126.119C214.869 127.037 215.303 127.968 215.962 128.18C216.752 128.44 223.139 128.378 223.6 127.919C223.823 127.695 223.863 126.951 223.85 126.255Z" fill="white"/>
<path fill-rule="evenodd" clip-rule="evenodd" d="M198.881 271.815C199.789 272.026 201.436 271.033 205.017 272.237C205.689 272.46 207.822 273.577 209.324 274.459C210.404 275.092 210.97 275.65 210.917 276.308C210.864 276.954 206.532 276.519 206.532 276.519C206.532 276.519 207.915 276.532 209.034 277.649C210.693 279.312 207.73 280.492 206.031 281.199C197.129 284.948 194.008 276.47 191.388 273.267C188.767 270.064 198.881 271.815 198.881 271.815Z" fill="#F4AD85"/>
<path fill-rule="evenodd" clip-rule="evenodd" d="M182.525 159.151C161.166 170.807 173.755 244.568 191.191 275.626C192.639 278.22 200.764 271.132 201.001 270.114C201.146 269.506 195.326 241.65 191.296 216.228C189.149 202.672 192.139 195.15 191.191 184.387C190.177 172.855 184.501 159.908 182.525 159.151Z" fill="white"/>
<path fill-rule="evenodd" clip-rule="evenodd" d="M178.508 162.515C162.969 180.999 174.979 246.765 191.19 275.626C192.098 277.252 195.654 275.055 198.222 272.945C196.826 272.287 195.535 271.145 194.403 269.419C186.291 256.994 169.487 193.921 178.508 162.515Z" fill="#F3DDC7"/>
<path fill-rule="evenodd" clip-rule="evenodd" d="M310.396 130.303C311.476 128.031 313.214 126.752 314.663 125.002C314.887 124.692 315.163 124.332 315.44 123.959C316.125 122.917 316.678 121.663 316.954 119.987C317.02 119.552 317.771 118.473 318.284 117.641C318.587 117.144 318.798 116.747 318.758 116.623C318.6 116.238 317.626 115.953 316.888 116.275C316.283 116.548 315.506 116.834 314.558 117.604C313.965 118.1 313.293 118.795 312.582 119.813C312.582 118.783 311.726 109.634 311.568 108.393C311.305 106.444 310.251 105.501 309.224 107.524C308.816 108.331 308.671 109.46 308.566 110.342C308.526 110.665 308.816 106.94 308.079 106.543C305.998 105.414 305.155 108.753 305.168 109.882C305.168 109.882 305.01 108.281 304.852 107.487C304.51 106.32 303.404 106.94 302.864 107.884C302.06 109.299 301.823 111.658 301.784 111.608C300.572 109.733 299.901 111.906 299.571 114.252C299.348 115.878 299.269 117.579 299.295 118.063C299.348 119.404 300.204 124.952 301.007 126.318C302.1 128.18 302.534 130.923 302.653 134.213C302.666 134.535 302.666 134.858 302.679 135.193C302.692 135.653 302.692 136.112 302.692 136.584C302.837 136.559 302.982 136.546 303.127 136.522C303.404 136.484 303.667 136.447 303.944 136.41C307.012 136 309.54 135.64 311.621 135.318C311.344 134.2 311.094 133.17 310.87 132.239C310.752 131.755 310.646 131.283 310.554 130.861C310.462 130.65 310.423 130.476 310.396 130.303Z" fill="#F4AD85"/>
<path fill-rule="evenodd" clip-rule="evenodd" d="M310.396 130.303C311.476 128.031 313.214 126.752 314.663 125.002C314.887 124.692 315.163 124.332 315.44 123.959C316.085 122.966 316.625 121.787 316.915 120.248C316.546 120.583 316.151 121.017 315.769 121.576C313.188 125.213 309.79 127.385 305.84 126.603C302.179 125.883 299.545 120.707 299.901 112.527C299.769 113.048 299.65 113.644 299.571 114.252C299.348 115.878 299.269 117.579 299.295 118.063C299.348 119.404 300.204 124.952 301.007 126.318C302.1 128.18 302.534 130.923 302.653 134.213C302.666 134.536 302.666 134.858 302.679 135.193C302.692 135.653 302.692 136.112 302.692 136.584C302.837 136.559 302.982 136.547 303.127 136.522C303.404 136.484 303.667 136.447 303.944 136.41C307.012 136 309.54 135.64 311.621 135.318C311.344 134.2 311.094 133.17 310.87 132.239C310.752 131.755 310.646 131.283 310.554 130.861C310.462 130.65 310.423 130.476 310.396 130.303Z" fill="#E37B64"/>
<path fill-rule="evenodd" clip-rule="evenodd" d="M368.023 148.19H425.281C430.72 148.19 435.171 152.386 435.171 157.512V244.53C435.171 249.657 430.72 253.853 425.281 253.853H368.023C362.584 253.853 358.133 249.657 358.133 244.53V157.512C358.133 152.386 362.584 148.19 368.023 148.19Z" fill="#331B16"/>
<path fill-rule="evenodd" clip-rule="evenodd" d="M425.57 148.19C431.246 148.19 435.895 152.572 435.895 157.922V244.121C435.895 249.471 431.246 253.853 425.57 253.853C419.895 253.853 415.246 249.471 415.246 244.121V157.922C415.246 152.572 419.895 148.19 425.57 148.19Z" fill="#4E3735"/>
<path fill-rule="evenodd" clip-rule="evenodd" d="M361.782 111.198C339.882 85.3411 374.345 46.0278 404.871 77.9427C404.871 77.9427 419.33 74.4794 417.934 92.7271C416.525 110.962 412.337 115.146 420.686 128.18C422.161 130.489 423.794 132.897 425.335 135.392C425.388 135.504 426.138 137.242 425.164 138.682C424.189 140.121 395.231 160.728 366.102 147.557C366.865 143.945 367.102 138.421 367.102 138.421C365.996 143.324 364.06 146.514 364.021 146.564C363.573 146.341 363.139 146.105 362.691 145.869C362.691 145.869 361.374 145.012 361.888 142.492C366.26 131.556 364.851 131.196 363.428 117.492L361.782 111.198Z" fill="#3C2724"/>
<path fill-rule="evenodd" clip-rule="evenodd" d="M355.5 371.954C359.556 409.641 363.836 447.403 364.271 473.657C364.389 480.683 371.132 476.922 372.567 474.936C374.002 472.95 374.424 331.66 375.886 318.85C376.399 314.381 383.234 316.057 385.657 324.957C390.108 341.33 397.983 462.969 397.799 477.133C397.772 478.734 408.07 484.06 407.754 475.345C407.715 474.055 409.071 404.949 408.281 349.573C407.069 262.617 349.403 315.237 355.5 371.954Z" fill="#F4AD85"/>
<path fill-rule="evenodd" clip-rule="evenodd" d="M372.935 471.435C374.094 449.414 374.568 330.556 375.911 318.85C376.425 314.381 383.26 316.057 385.683 324.957C390.134 341.33 398.009 462.969 397.824 477.133C397.811 478.387 404.159 481.937 406.727 479.181C406.977 478.623 407.122 478.3 407.122 478.3C407.122 478.3 400.195 474.588 399.826 463.242C399.115 440.849 394.282 357.977 408.465 364.146C408.425 359.218 408.373 354.34 408.307 349.56C407.174 269.544 358.265 307.702 355.21 358.498C358.621 359.59 365.995 362.321 367.549 366.033C370.512 373.109 371.302 461.269 370.802 466.234C370.697 467.302 371.526 469.151 372.935 471.435Z" fill="#ED9072"/>
<path fill-rule="evenodd" clip-rule="evenodd" d="M372.132 150.325C372.132 150.325 344.965 165.73 335.457 170.584C325.949 175.45 323.381 154.844 312.372 129.086C311.503 127.907 302.877 131.593 302.021 132.86C301.257 134.002 311.121 191.165 325.238 193.574C338.973 195.92 354.551 179.608 365.587 173.973C368.537 172.483 377.031 149.903 372.132 150.325Z" fill="white"/>
<path fill-rule="evenodd" clip-rule="evenodd" d="M304.484 131.258C303.246 131.879 302.284 132.475 302.021 132.859C301.257 134.001 311.121 191.165 325.238 193.573C338.973 195.919 354.551 179.608 365.587 173.973C367.391 173.054 371.315 164.141 372.909 157.512C364.257 168.449 337.05 189.713 326.173 188.087C314.808 186.398 307.868 153.466 304.484 131.258Z" fill="#F3DDC7"/>
<path fill-rule="evenodd" clip-rule="evenodd" d="M372.224 149.469C372.224 149.469 366.917 149.841 364.388 152.634C361.86 155.427 360.108 161.448 360.108 161.448C360.108 161.448 374.489 154.124 372.224 149.469Z" fill="#4E3735"/>
<path fill-rule="evenodd" clip-rule="evenodd" d="M409.597 251.085C423.728 264.777 416.05 350.355 415.602 350.777C408.175 357.815 393.913 364.481 378.229 362.979C370.17 362.197 346.927 360.894 345.518 355.382C342.357 343.031 337.695 257.875 348.046 251.035C355.131 246.343 360.912 241.961 367.984 243.637C370.762 244.295 409.597 251.085 409.597 251.085Z" fill="#273A88"/>
<path fill-rule="evenodd" clip-rule="evenodd" d="M409.596 251.085C423.726 264.777 416.049 350.355 415.601 350.777C409.846 356.227 399.996 361.453 388.565 362.83L392.042 358.175C413.007 330.084 406.014 263.511 397.191 264.554C388.355 265.596 351.205 259.005 350.468 250.34C354.682 248.044 362.939 246.058 373.039 244.593C384.246 246.653 409.596 251.085 409.596 251.085Z" fill="#0E1B51"/>
<path fill-rule="evenodd" clip-rule="evenodd" d="M349.837 244.109C349.837 244.109 347.941 249.359 348.783 250.849C352.694 257.751 399.536 255.752 409.083 251.383C414.14 249.061 410.321 243.873 410.321 243.438C410.335 242.979 349.837 244.109 349.837 244.109Z" fill="#250C07"/>
<path fill-rule="evenodd" clip-rule="evenodd" d="M359.081 248.006C359.081 248.006 358.514 253.456 358.672 254.474C358.83 255.492 361.609 256.634 364.137 256.919C366.666 257.205 375.7 257.974 375.937 255.343C376.174 252.711 376.121 249.31 375.752 248.689C375.397 248.068 359.081 248.006 359.081 248.006Z" fill="#4E3935"/>
<path fill-rule="evenodd" clip-rule="evenodd" d="M398.852 150.474C389.568 148.302 377.65 145.881 371.975 150.412C347.928 169.591 346.137 204.274 346.467 240.111C346.625 256.509 412.284 250.476 412.126 242.681C412.113 242.284 412.166 241.886 412.1 241.502C404.976 201.63 413.891 204.46 418.461 179.013C419.975 170.547 423.215 165.321 419.778 160.665C416.564 156.346 407.043 152.386 398.852 150.474Z" fill="white"/>
<path fill-rule="evenodd" clip-rule="evenodd" d="M388.172 249.955C398.799 248.987 408.07 246.889 411.086 244.406C411.415 243.413 411.744 242.371 412.06 241.278C407.069 213.236 410.072 206.409 413.864 195.833C408.044 184.822 409.071 169.901 409.071 169.901C409.071 169.901 402.816 232.316 391.411 244.804C389.594 246.765 388.593 248.466 388.172 249.955Z" fill="#F3DDC7"/>
<path fill-rule="evenodd" clip-rule="evenodd" d="M366.047 250.067C366.719 250.129 367.404 250.191 368.088 250.241C367.522 249.062 367.114 248.056 366.837 247.038C362.478 231.248 371.736 174.643 379.716 159.325C379.927 158.928 379.73 158.456 379.269 158.282C378.808 158.096 378.281 158.27 378.07 158.667C369.985 174.246 360.608 231.261 365.073 247.411C365.297 248.279 365.626 249.136 366.047 250.067Z" fill="#F6ECDB"/>
<path fill-rule="evenodd" clip-rule="evenodd" d="M396.902 125.66L396.296 132.164C396.296 132.164 395.611 145.509 395.506 147.544C395.453 148.612 397.402 149.444 397.574 151.281C398.509 161.323 369.866 162.428 374.449 148.835C374.634 148.277 375.608 148.289 376.214 147.681C378.545 145.347 379.006 134.498 376.938 131.556C374.871 128.626 396.902 125.66 396.902 125.66Z" fill="#E37B64"/>
<path fill-rule="evenodd" clip-rule="evenodd" d="M363.36 111.012C367.166 110.975 370.274 113.855 370.327 117.43C370.366 121.017 367.311 123.947 363.518 123.996C359.713 124.033 356.605 121.166 356.552 117.579C356.513 113.991 359.555 111.049 363.36 111.012Z" fill="#E37B64"/>
<path fill-rule="evenodd" clip-rule="evenodd" d="M410.546 110.528C414.352 110.491 417.473 113.371 417.513 116.946C417.552 120.533 414.497 123.475 410.704 123.512C406.899 123.55 403.791 120.67 403.738 117.095C403.685 113.507 406.74 110.565 410.546 110.528Z" fill="#E37B64"/>
<path fill-rule="evenodd" clip-rule="evenodd" d="M384.998 77.955C397.969 77.8185 408.702 87.7244 408.846 99.9516L409.083 120.161C409.228 132.388 398.72 142.505 385.748 142.641C372.777 142.778 362.044 132.872 361.899 120.645L361.676 100.436C361.518 88.1961 372.026 78.0916 384.998 77.955Z" fill="#F4AD85"/>
<path fill-rule="evenodd" clip-rule="evenodd" d="M395.573 80.2146C403.329 83.8021 408.741 91.2874 408.847 99.9519L409.071 120.161C409.189 130.849 401.196 139.911 390.529 142.12C413.904 130.923 401.591 110.863 398.009 104.408C394.414 97.9534 392.992 95.1355 386.736 98.4499C380.481 101.764 375.714 102.013 375.714 102.013L369.735 98.2761C369.735 98.2761 370.078 89.9219 372.251 87.6875C374.423 85.4531 382.759 84.1248 392.965 80.8477C393.795 80.587 394.664 80.376 395.573 80.2146Z" fill="#ED9072"/>
<path fill-rule="evenodd" clip-rule="evenodd" d="M365.745 107.3L372.277 107.238C372.962 107.226 373.541 107.76 373.541 108.405C373.554 109.051 372.988 109.597 372.303 109.597L365.785 109.659C365.1 109.671 364.52 109.137 364.52 108.492C364.494 107.847 365.06 107.3 365.745 107.3Z" fill="#331B16"/>
<path fill-rule="evenodd" clip-rule="evenodd" d="M392.096 107.028L398.627 106.966C399.312 106.953 399.891 107.487 399.891 108.132C399.891 108.778 399.338 109.324 398.654 109.324L392.122 109.386C391.437 109.399 390.858 108.865 390.858 108.219C390.844 107.574 391.411 107.04 392.096 107.028Z" fill="#331B16"/>
<path fill-rule="evenodd" clip-rule="evenodd" d="M389.895 124.865C389.948 128.776 386.616 131.978 382.468 132.016C378.32 132.053 374.922 128.925 374.883 125.014H374.896C374.883 124.344 375.462 123.785 376.173 123.785L388.565 123.661C389.276 123.649 389.869 124.195 389.895 124.865Z" fill="white"/>
<path fill-rule="evenodd" clip-rule="evenodd" d="M367.667 121.303C369.551 121.278 371.105 122.705 371.118 124.48C371.144 126.256 369.63 127.708 367.746 127.733C365.863 127.758 364.323 126.33 364.296 124.555C364.27 122.78 365.784 121.327 367.667 121.303Z" fill="#E37B64"/>
<path fill-rule="evenodd" clip-rule="evenodd" d="M397.021 121.005C398.904 120.98 400.445 122.407 400.471 124.183C400.498 125.958 398.983 127.41 397.1 127.435C395.217 127.46 393.676 126.032 393.65 124.257C393.623 122.482 395.138 121.03 397.021 121.005Z" fill="#E37B64"/>
<path fill-rule="evenodd" clip-rule="evenodd" d="M412.086 110.677L410.532 109.187L406.845 109.473C406.845 109.473 404.619 116.039 409.031 116.486L408.991 112.737C408.965 110.975 411.019 110.342 412.086 110.677Z" fill="#3C2724"/>
<path fill-rule="evenodd" clip-rule="evenodd" d="M393.69 88.5807C392.82 97.3942 403.566 109.249 410.546 110.528L411.323 90.7158L404.62 81.2568L387.421 75.6335C387.421 75.6335 373.094 78.1286 372.08 78.5507C371.066 78.9728 367.721 81.083 366.285 83.7147C364.85 86.3587 360.254 94.5516 360.254 94.5516L361.716 104.06C361.702 104.06 380.126 106.394 393.69 88.5807Z" fill="#3C2724"/>
<path fill-rule="evenodd" clip-rule="evenodd" d="M391.871 117.343C391.871 117.79 391.489 118.162 391.015 118.175C390.541 118.175 390.146 117.815 390.133 117.368C390.12 116.288 390.581 115.295 391.331 114.562C392.082 113.842 393.122 113.383 394.281 113.371C395.44 113.358 396.48 113.793 397.244 114.5C398.008 115.208 398.495 116.188 398.508 117.281C398.508 117.728 398.127 118.1 397.652 118.113C397.178 118.113 396.783 117.753 396.77 117.306C396.757 116.673 396.48 116.089 396.033 115.68C395.585 115.27 394.966 115.009 394.281 115.022C393.61 115.034 392.991 115.295 392.556 115.717C392.135 116.126 391.871 116.71 391.871 117.343Z" fill="#331B16"/>
<path fill-rule="evenodd" clip-rule="evenodd" d="M367.825 117.591C367.825 118.038 367.444 118.41 366.97 118.423C366.495 118.423 366.1 118.063 366.087 117.616C366.074 116.536 366.535 115.543 367.286 114.823C368.036 114.103 369.077 113.644 370.235 113.631C371.394 113.619 372.435 114.053 373.198 114.761C373.962 115.468 374.449 116.449 374.463 117.541C374.463 117.988 374.081 118.361 373.607 118.373C373.119 118.373 372.737 118.013 372.724 117.566C372.724 116.933 372.435 116.35 371.987 115.94C371.539 115.53 370.92 115.27 370.249 115.282C369.577 115.295 368.958 115.555 368.523 115.977C368.089 116.374 367.825 116.945 367.825 117.591Z" fill="#331B16"/>
<path fill-rule="evenodd" clip-rule="evenodd" d="M361.781 74.8643C370.143 79.7924 385.129 85.2046 398.667 72.4561C399.576 73.1264 400.484 73.8588 401.38 74.6408C393.966 83.3302 378.848 95.5326 355.025 90.17C355.671 84.435 358.094 79.0724 361.781 74.8643Z" fill="#4E3735"/>
<path fill-rule="evenodd" clip-rule="evenodd" d="M404.198 104.694L405.581 108.517C405.581 108.517 406.081 129.248 406.226 135.007C406.371 140.767 405.304 142.517 405.423 142.927C405.541 143.349 408.728 143.697 409.808 140.966C410.901 138.235 409.334 129.372 409.018 116.462C408.702 103.552 408.702 103.49 408.702 103.49L404.198 104.694Z" fill="#3C2724"/>
<path fill-rule="evenodd" clip-rule="evenodd" d="M376.465 154.794L379.283 153.379C379.283 153.379 379.033 156.718 379.335 156.867C379.625 157.016 380.468 155.315 381.759 154.893C383.049 154.471 385.261 158.903 385.261 158.903C385.261 158.903 383.431 161.683 381.732 161.596C380.033 161.497 373.844 159.511 374.094 158.145C374.331 156.768 376.465 154.794 376.465 154.794Z" fill="#E0CAB2"/>
<path fill-rule="evenodd" clip-rule="evenodd" d="M385.472 157.016C385.472 157.016 349.929 173.948 348.836 176.009C347.743 178.069 351.615 181.806 352.972 183.097C354.328 184.388 383.497 161.944 386.038 160.653C388.58 159.35 385.472 157.016 385.472 157.016Z" fill="#273A88"/>
<path fill-rule="evenodd" clip-rule="evenodd" d="M385.473 157.016C385.473 157.016 379.06 160.07 371.606 163.744C371.553 165.172 371.277 166.897 370.447 168.561C368.735 171.999 356.686 179.261 349.838 179.633C350.852 181.061 352.261 182.426 352.972 183.097C354.328 184.388 383.497 161.944 386.039 160.653C388.581 159.35 385.473 157.016 385.473 157.016Z" fill="#0E1B51"/>
<path fill-rule="evenodd" clip-rule="evenodd" d="M376.819 154.819C376.819 154.819 387.987 179.757 388.171 186.299C388.171 186.299 388.434 189.092 386.117 189.539C383.799 189.998 378.11 191.848 377.32 191.438C376.53 191.029 375.489 190.433 375.134 189.303C374.791 188.173 374.778 156.271 374.778 156.271L376.819 154.819Z" fill="#273A88"/>
<path fill-rule="evenodd" clip-rule="evenodd" d="M376.821 154.819C377.611 156.594 378.862 157.661 377.348 158.307C376.4 158.716 377.558 183.506 377.967 186.336C378.283 188.571 379.363 189.651 381.759 190.656C379.718 191.19 377.769 191.662 377.335 191.438C376.544 191.029 375.504 190.433 375.149 189.303C374.806 188.173 374.793 156.271 374.793 156.271L376.821 154.819Z" fill="#0E1B51"/>
<path fill-rule="evenodd" clip-rule="evenodd" d="M396.559 148.948C396.559 148.948 393.951 153.578 383.719 153.267C383.719 153.267 381.52 153.255 381.112 155.092C380.69 156.917 385.392 162.975 385.326 165.755C385.26 168.523 397.836 156.557 399.574 152.361C399.561 152.349 398.323 149.804 396.559 148.948Z" fill="white"/>
<path fill-rule="evenodd" clip-rule="evenodd" d="M376.187 147.681C376.187 147.681 374.554 149.655 378.808 152.498C378.808 152.498 379.954 153.342 378.663 154.211C377.373 155.08 373.659 158.084 372.75 159.896C371.855 161.708 370.591 154.881 372.342 149.034C372.342 149.034 374.528 147.768 376.187 147.681Z" fill="white"/>
<path fill-rule="evenodd" clip-rule="evenodd" d="M377.176 161.001C376.386 160.579 375.161 161.162 374.437 162.292C373.726 163.422 373.778 164.688 374.568 165.11C375.359 165.532 376.583 164.948 377.308 163.819C378.032 162.689 377.966 161.423 377.176 161.001Z" fill="#F9C552"/>
<path fill-rule="evenodd" clip-rule="evenodd" d="M376.359 161.634C375.884 161.386 375.147 161.721 374.726 162.404C374.291 163.086 374.33 163.831 374.805 164.092C375.279 164.34 376.016 164.005 376.438 163.322C376.872 162.639 376.833 161.895 376.359 161.634Z" fill="#FDD42F"/>
<path fill-rule="evenodd" clip-rule="evenodd" d="M429.192 229.808L389.738 224.371C387.828 224.111 386.037 225.364 385.761 227.164L381.363 255.516C381.086 257.316 382.416 259.005 384.326 259.265L423.779 264.702C425.689 264.963 427.48 263.709 427.756 261.909L432.155 233.557C432.445 231.757 431.101 230.069 429.192 229.808Z" fill="#EB8C1E"/>
<path fill-rule="evenodd" clip-rule="evenodd" d="M427.546 230.851L390.818 225.787C388.962 225.526 387.223 226.755 386.947 228.505L382.667 256.088C382.39 257.838 383.694 259.477 385.551 259.737L422.279 264.802C424.136 265.063 425.874 263.834 426.15 262.083L430.43 234.501C430.694 232.751 429.403 231.1 427.546 230.851Z" fill="#F7FBFD"/>
<path fill-rule="evenodd" clip-rule="evenodd" d="M385.617 259.737L422.279 264.789C424.136 265.05 425.874 263.821 426.15 262.071L430.43 234.488C430.602 233.421 430.18 232.39 429.403 231.695L392.741 226.643C390.884 226.382 389.146 227.611 388.869 229.362L384.59 256.944C384.432 258.012 384.853 259.03 385.617 259.737Z" fill="#FBE3D5"/>
<path fill-rule="evenodd" clip-rule="evenodd" d="M429.417 232.167L393.887 227.263C392.083 227.015 390.398 228.194 390.134 229.895L385.986 256.646C385.723 258.347 386.974 259.936 388.778 260.184L424.308 265.087C426.112 265.335 427.797 264.156 428.061 262.455L432.222 235.705C432.472 234.004 431.221 232.415 429.417 232.167Z" fill="#EB8C1E"/>
<path fill-rule="evenodd" clip-rule="evenodd" d="M427.586 233.421L395.257 228.964C393.624 228.741 392.083 229.821 391.846 231.36L388.435 253.617C388.198 255.157 389.344 256.609 390.977 256.832L423.306 261.289C424.939 261.512 426.48 260.432 426.717 258.893L430.128 236.636C430.365 235.097 429.219 233.657 427.586 233.421Z" fill="#F39D18"/>
<path fill-rule="evenodd" clip-rule="evenodd" d="M417.023 258.471C416.114 258.682 414.468 257.689 410.886 258.893C410.215 259.116 408.081 260.234 406.58 261.115C405.5 261.748 404.934 262.307 404.987 262.965C405.039 263.61 409.372 263.176 409.372 263.176C409.372 263.176 407.989 263.188 406.87 264.305C405.197 265.956 408.174 267.148 409.872 267.855C418.775 271.604 421.896 263.126 424.516 259.923C427.137 256.708 417.023 258.471 417.023 258.471Z" fill="#F4AD85"/>
<path fill-rule="evenodd" clip-rule="evenodd" d="M401.855 234.774L396.574 234.041C396.034 233.967 395.52 234.327 395.441 234.836L392.689 252.562C392.61 253.071 392.992 253.555 393.532 253.63L398.813 254.362C399.352 254.436 399.866 254.076 399.945 253.568L402.697 235.841C402.79 235.332 402.408 234.848 401.855 234.774Z" fill="#F7FBFD"/>
<path fill-rule="evenodd" clip-rule="evenodd" d="M417.669 159.325C427.269 166.339 445.324 210.927 444.797 222.559C444.376 231.633 435.856 254.685 423.582 262.617C421.857 263.734 415.523 259.563 414.469 257.949C414.166 257.49 416.813 255.032 418.907 251.445C423.385 243.749 429.6 230.876 428.784 221.491C427.599 207.75 390.331 180.825 417.669 159.325Z" fill="white"/>
<path fill-rule="evenodd" clip-rule="evenodd" d="M412.481 155.663C412.481 155.663 397.231 195.709 409.505 217.432C409.505 217.432 411.309 220.138 413.653 220.908C413.653 220.908 414.68 221.293 414.377 222.447C414.074 223.602 412.455 223.713 411.362 223.552C410.282 223.391 400.892 216.663 397.995 197.484C395.111 178.305 398.812 159.04 402.762 151.703C402.762 151.703 403.947 150.723 405.304 151.008C406.673 151.281 412.599 153.267 412.481 155.663Z" fill="#4E3735"/>
<path fill-rule="evenodd" clip-rule="evenodd" d="M363.52 474.998C363.52 474.03 363.164 467.736 363.336 466.594C363.52 465.464 364.047 465.651 364.047 465.651C364.047 465.651 367.892 467.24 373.146 466.16C373.146 466.16 373.489 466.023 373.752 467.066C374.029 468.121 373.844 474.948 373.844 474.948C373.844 474.948 365.351 478.598 363.52 474.998Z" fill="#F6ECDB"/>
<path fill-rule="evenodd" clip-rule="evenodd" d="M397.008 477.828C397.008 476.86 396.6 470.566 396.797 469.424C397.008 468.294 397.587 468.481 397.587 468.481C397.587 468.481 401.92 470.07 407.819 468.99C407.819 468.99 408.201 468.853 408.504 469.896C408.807 470.951 408.61 477.778 408.61 477.778C408.61 477.778 399.075 481.44 397.008 477.828Z" fill="#F6ECDB"/>
<path fill-rule="evenodd" clip-rule="evenodd" d="M415.009 483.799C416.129 491.681 396.626 489.161 395.098 485.748C394.189 483.724 393.702 478.386 395.401 475.953C398.061 472.155 403.948 471.609 407.806 473.409C409.702 474.302 414.772 482.148 415.009 483.799Z" fill="#4E3735"/>
<path fill-rule="evenodd" clip-rule="evenodd" d="M415.077 484.32C415.643 491.346 396.693 489.298 395.099 485.76C394.757 485.003 394.573 484.271 394.48 483.551C394.494 483.576 396.192 485.698 401.789 486.009C407.425 486.331 414.102 486.406 415.077 484.32Z" fill="white"/>
<path fill-rule="evenodd" clip-rule="evenodd" d="M366.418 474.216C366.418 474.216 364.1 472.776 361.598 473.359C359.096 473.943 344.913 478.114 342.609 478.97C340.291 479.827 337.578 485.164 339.409 487.039C340.094 487.734 349.759 487.734 359.399 487.523C367.261 487.349 375.36 487.262 376.413 485.388C377.533 483.414 378.007 480.062 376.611 475.929C374.306 469.101 375.017 475.445 366.418 474.216Z" fill="#4E3735"/>
<path fill-rule="evenodd" clip-rule="evenodd" d="M362.571 472.714C361.043 473.074 361.162 473.483 360.846 473.583C362.913 474.005 367.075 475.172 367.904 477.692C368.681 480.087 369.155 484.196 366.258 486.902C369.629 486.84 372.303 486.046 374.252 486.182C376.201 486.319 378.913 482.756 376.609 475.929C376.332 475.085 375.858 472.763 374.647 472.292C373.422 471.82 373.475 473.732 369.932 473.719C366.061 473.707 363.558 472.478 362.571 472.714Z" fill="#331B16"/>
<path fill-rule="evenodd" clip-rule="evenodd" d="M339.025 484.271C338.63 485.251 338.656 486.269 339.407 487.039C341.264 488.926 373.883 488.044 375.476 486.592C376.346 485.798 377.07 484.382 377.346 482.496C375.871 484.37 341.514 486.964 339.025 484.271Z" fill="white"/>
<path fill-rule="evenodd" clip-rule="evenodd" d="M406.871 478.387C406.911 478.461 406.95 478.548 406.976 478.622C407.003 478.672 407.029 478.722 407.042 478.771C408.135 481.316 408.135 483.91 407.148 486.17C411.006 486.157 414.364 485.748 415.062 484.333C415.062 484.159 415.049 483.973 415.009 483.786C414.799 482.346 410.953 476.239 408.688 474.079C408.346 473.756 408.043 473.52 407.793 473.396C407.793 473.396 407.793 473.396 407.78 473.396C406.094 472.614 404.013 472.279 401.999 472.465C401.88 472.478 401.748 472.49 401.63 472.503C401.841 472.652 402.051 472.813 402.262 472.962C404.303 474.526 405.765 476.264 406.687 478.039C406.753 478.163 406.818 478.275 406.871 478.387Z" fill="#331B16"/>
<path fill-rule="evenodd" clip-rule="evenodd" d="M415.062 484.345C414.364 485.76 411.006 486.17 407.147 486.182C406.7 487.2 406.054 488.144 405.225 488.975C407.753 489.075 410.255 488.839 412.112 488.119C414.008 487.386 415.22 486.17 415.075 484.308C415.062 484.32 415.062 484.333 415.062 484.345Z" fill="#D9D4D6"/>
<path fill-rule="evenodd" clip-rule="evenodd" d="M368.117 484.307C367.801 485.077 367.366 485.971 366.905 486.877C366.826 487.026 366.747 487.175 366.668 487.324C366.589 487.461 366.523 487.609 366.444 487.746C371.277 487.473 374.965 487.063 375.478 486.604C375.821 486.294 376.137 485.884 376.413 485.387C376.848 484.618 377.177 483.65 377.348 482.508L377.335 482.52C376.808 483.116 373.068 483.761 368.117 484.307Z" fill="#D9D4D6"/>
<path fill-rule="evenodd" clip-rule="evenodd" d="M386.395 254.114C385.907 255.839 385.275 256.398 384.051 256.286C383.023 256.199 382.431 254.945 382.997 253.158C382.997 253.158 380.284 256.671 381.983 258.185C383.076 259.153 383.998 259.575 386.013 259.886C387.145 260.06 391.794 260.792 392.703 260.655C395.218 260.32 386.395 254.114 386.395 254.114Z" fill="#EB8C1E"/>
<path fill-rule="evenodd" clip-rule="evenodd" d="M398.865 252.612C398.851 252.699 398.759 252.761 398.667 252.749C398.575 252.736 398.509 252.649 398.522 252.562L401.037 236.338C401.051 236.251 401.143 236.189 401.235 236.202C401.327 236.214 401.393 236.301 401.38 236.388L398.865 252.612Z" fill="#C8C9CA"/>
<path fill-rule="evenodd" clip-rule="evenodd" d="M396.704 252.413C396.691 252.5 396.599 252.562 396.507 252.55C396.415 252.537 396.349 252.45 396.362 252.363L398.877 236.139C398.89 236.052 398.983 235.99 399.075 236.003C399.167 236.015 399.233 236.102 399.22 236.189L396.704 252.413Z" fill="#C8C9CA"/>
<path fill-rule="evenodd" clip-rule="evenodd" d="M394.677 251.942C394.664 252.029 394.572 252.091 394.48 252.078C394.387 252.066 394.322 251.979 394.335 251.892L396.85 235.668C396.863 235.581 396.955 235.519 397.047 235.531C397.14 235.544 397.205 235.63 397.192 235.717L394.677 251.942Z" fill="#C8C9CA"/>
</svg>
